<svg xmlns="http://www.w3.org/2000/svg" xmlns:xlink="http://www.w3.org/1999/xlink" width="600" height="400" viewBox="0 0 2400 1600">
<defs>
  <clipPath id="clip040">
    <rect x="0" y="0" width="2400" height="1600"></rect>
  </clipPath>
</defs>
<path clip-path="url(#clip040)" d="M0 1600 L2400 1600 L2400 0 L0 0  Z" fill="#ffffff" fill-rule="evenodd" fill-opacity="1"></path>
<defs>
  <clipPath id="clip041">
    <rect x="480" y="0" width="1681" height="1600"></rect>
  </clipPath>
</defs>
<path clip-path="url(#clip040)" d="M413.928 1486.45 L2352.76 1486.45 L2352.76 265.204 L413.928 265.204  Z" fill="#ffffff" fill-rule="evenodd" fill-opacity="1"></path>
<defs>
  <clipPath id="clip042">
    <rect x="413" y="265" width="1940" height="1222"></rect>
  </clipPath>
</defs>
<polyline clip-path="url(#clip042)" style="stroke:#000000; stroke-linecap:round; stroke-linejoin:round; stroke-width:2; stroke-opacity:0.1; fill:none" points="468.8,1486.45 468.8,265.204 "></polyline>
<polyline clip-path="url(#clip042)" style="stroke:#000000; stroke-linecap:round; stroke-linejoin:round; stroke-width:2; stroke-opacity:0.1; fill:none" points="849.058,1486.45 849.058,265.204 "></polyline>
<polyline clip-path="url(#clip042)" style="stroke:#000000; stroke-linecap:round; stroke-linejoin:round; stroke-width:2; stroke-opacity:0.1; fill:none" points="1229.32,1486.45 1229.32,265.204 "></polyline>
<polyline clip-path="url(#clip042)" style="stroke:#000000; stroke-linecap:round; stroke-linejoin:round; stroke-width:2; stroke-opacity:0.1; fill:none" points="1609.57,1486.45 1609.57,265.204 "></polyline>
<polyline clip-path="url(#clip042)" style="stroke:#000000; stroke-linecap:round; stroke-linejoin:round; stroke-width:2; stroke-opacity:0.1; fill:none" points="1989.83,1486.45 1989.83,265.204 "></polyline>
<polyline clip-path="url(#clip042)" style="stroke:#000000; stroke-linecap:round; stroke-linejoin:round; stroke-width:2; stroke-opacity:0.1; fill:none" points="413.928,1451.88 2352.76,1451.88 "></polyline>
<polyline clip-path="url(#clip042)" style="stroke:#000000; stroke-linecap:round; stroke-linejoin:round; stroke-width:2; stroke-opacity:0.1; fill:none" points="413.928,1067.85 2352.76,1067.85 "></polyline>
<polyline clip-path="url(#clip042)" style="stroke:#000000; stroke-linecap:round; stroke-linejoin:round; stroke-width:2; stroke-opacity:0.1; fill:none" points="413.928,683.807 2352.76,683.807 "></polyline>
<polyline clip-path="url(#clip042)" style="stroke:#000000; stroke-linecap:round; stroke-linejoin:round; stroke-width:2; stroke-opacity:0.1; fill:none" points="413.928,299.768 2352.76,299.768 "></polyline>
<polyline clip-path="url(#clip040)" style="stroke:#000000; stroke-linecap:round; stroke-linejoin:round; stroke-width:4; stroke-opacity:1; fill:none" points="413.928,1486.45 2352.76,1486.45 "></polyline>
<polyline clip-path="url(#clip040)" style="stroke:#000000; stroke-linecap:round; stroke-linejoin:round; stroke-width:4; stroke-opacity:1; fill:none" points="468.8,1486.45 468.8,1467.55 "></polyline>
<polyline clip-path="url(#clip040)" style="stroke:#000000; stroke-linecap:round; stroke-linejoin:round; stroke-width:4; stroke-opacity:1; fill:none" points="849.058,1486.45 849.058,1467.55 "></polyline>
<polyline clip-path="url(#clip040)" style="stroke:#000000; stroke-linecap:round; stroke-linejoin:round; stroke-width:4; stroke-opacity:1; fill:none" points="1229.32,1486.45 1229.32,1467.55 "></polyline>
<polyline clip-path="url(#clip040)" style="stroke:#000000; stroke-linecap:round; stroke-linejoin:round; stroke-width:4; stroke-opacity:1; fill:none" points="1609.57,1486.45 1609.57,1467.55 "></polyline>
<polyline clip-path="url(#clip040)" style="stroke:#000000; stroke-linecap:round; stroke-linejoin:round; stroke-width:4; stroke-opacity:1; fill:none" points="1989.83,1486.45 1989.83,1467.55 "></polyline>
<path clip-path="url(#clip040)" d="M468.8 1517.37 Q465.189 1517.37 463.36 1520.93 Q461.555 1524.47 461.555 1531.6 Q461.555 1538.71 463.36 1542.27 Q465.189 1545.82 468.8 1545.82 Q472.434 1545.82 474.24 1542.27 Q476.069 1538.71 476.069 1531.6 Q476.069 1524.47 474.24 1520.93 Q472.434 1517.37 468.8 1517.37 M468.8 1513.66 Q474.61 1513.66 477.666 1518.27 Q480.744 1522.85 480.744 1531.6 Q480.744 1540.33 477.666 1544.94 Q474.61 1549.52 468.8 1549.52 Q462.99 1549.52 459.911 1544.94 Q456.856 1540.33 456.856 1531.6 Q456.856 1522.85 459.911 1518.27 Q462.99 1513.66 468.8 1513.66 Z" fill="#000000" fill-rule="nonzero" fill-opacity="1"></path><path clip-path="url(#clip040)" d="M827.831 1544.91 L844.151 1544.91 L844.151 1548.85 L822.206 1548.85 L822.206 1544.91 Q824.868 1542.16 829.452 1537.53 Q834.058 1532.88 835.239 1531.53 Q837.484 1529.01 838.364 1527.27 Q839.266 1525.51 839.266 1523.82 Q839.266 1521.07 837.322 1519.33 Q835.401 1517.6 832.299 1517.6 Q830.1 1517.6 827.646 1518.36 Q825.216 1519.13 822.438 1520.68 L822.438 1515.95 Q825.262 1514.82 827.716 1514.24 Q830.169 1513.66 832.206 1513.66 Q837.577 1513.66 840.771 1516.35 Q843.966 1519.03 843.966 1523.52 Q843.966 1525.65 843.155 1527.57 Q842.368 1529.47 840.262 1532.07 Q839.683 1532.74 836.581 1535.95 Q833.479 1539.15 827.831 1544.91 Z" fill="#000000" fill-rule="nonzero" fill-opacity="1"></path><path clip-path="url(#clip040)" d="M863.965 1517.37 Q860.354 1517.37 858.526 1520.93 Q856.72 1524.47 856.72 1531.6 Q856.72 1538.71 858.526 1542.27 Q860.354 1545.82 863.965 1545.82 Q867.6 1545.82 869.405 1542.27 Q871.234 1538.71 871.234 1531.6 Q871.234 1524.47 869.405 1520.93 Q867.6 1517.37 863.965 1517.37 M863.965 1513.66 Q869.776 1513.66 872.831 1518.27 Q875.91 1522.85 875.91 1531.6 Q875.91 1540.33 872.831 1544.94 Q869.776 1549.52 863.965 1549.52 Q858.155 1549.52 855.077 1544.94 Q852.021 1540.33 852.021 1531.6 Q852.021 1522.85 855.077 1518.27 Q858.155 1513.66 863.965 1513.66 Z" fill="#000000" fill-rule="nonzero" fill-opacity="1"></path><path clip-path="url(#clip040)" d="M1217.49 1518.36 L1205.68 1536.81 L1217.49 1536.81 L1217.49 1518.36 M1216.26 1514.29 L1222.14 1514.29 L1222.14 1536.81 L1227.07 1536.81 L1227.07 1540.7 L1222.14 1540.7 L1222.14 1548.85 L1217.49 1548.85 L1217.49 1540.7 L1201.89 1540.7 L1201.89 1536.19 L1216.26 1514.29 Z" fill="#000000" fill-rule="nonzero" fill-opacity="1"></path><path clip-path="url(#clip040)" d="M1244.8 1517.37 Q1241.19 1517.37 1239.36 1520.93 Q1237.56 1524.47 1237.56 1531.6 Q1237.56 1538.71 1239.36 1542.27 Q1241.19 1545.82 1244.8 1545.82 Q1248.44 1545.82 1250.24 1542.27 Q1252.07 1538.71 1252.07 1531.6 Q1252.07 1524.47 1250.24 1520.93 Q1248.44 1517.37 1244.8 1517.37 M1244.8 1513.66 Q1250.61 1513.66 1253.67 1518.27 Q1256.75 1522.85 1256.75 1531.6 Q1256.75 1540.33 1253.67 1544.94 Q1250.61 1549.52 1244.8 1549.52 Q1238.99 1549.52 1235.91 1544.94 Q1232.86 1540.33 1232.86 1531.6 Q1232.86 1522.85 1235.91 1518.27 Q1238.99 1513.66 1244.8 1513.66 Z" fill="#000000" fill-rule="nonzero" fill-opacity="1"></path><path clip-path="url(#clip040)" d="M1594.98 1529.7 Q1591.83 1529.7 1589.98 1531.86 Q1588.15 1534.01 1588.15 1537.76 Q1588.15 1541.49 1589.98 1543.66 Q1591.83 1545.82 1594.98 1545.82 Q1598.13 1545.82 1599.96 1543.66 Q1601.81 1541.49 1601.81 1537.76 Q1601.81 1534.01 1599.96 1531.86 Q1598.13 1529.7 1594.98 1529.7 M1604.26 1515.05 L1604.26 1519.31 Q1602.5 1518.48 1600.7 1518.04 Q1598.91 1517.6 1597.16 1517.6 Q1592.53 1517.6 1590.07 1520.72 Q1587.64 1523.85 1587.29 1530.17 Q1588.66 1528.15 1590.72 1527.09 Q1592.78 1526 1595.26 1526 Q1600.47 1526 1603.47 1529.17 Q1606.51 1532.32 1606.51 1537.76 Q1606.51 1543.08 1603.36 1546.3 Q1600.21 1549.52 1594.98 1549.52 Q1588.98 1549.52 1585.81 1544.94 Q1582.64 1540.33 1582.64 1531.6 Q1582.64 1523.41 1586.53 1518.55 Q1590.42 1513.66 1596.97 1513.66 Q1598.73 1513.66 1600.51 1514.01 Q1602.32 1514.36 1604.26 1515.05 Z" fill="#000000" fill-rule="nonzero" fill-opacity="1"></path><path clip-path="url(#clip040)" d="M1624.56 1517.37 Q1620.95 1517.37 1619.12 1520.93 Q1617.32 1524.47 1617.32 1531.6 Q1617.32 1538.71 1619.12 1542.27 Q1620.95 1545.82 1624.56 1545.82 Q1628.2 1545.82 1630 1542.27 Q1631.83 1538.71 1631.83 1531.6 Q1631.83 1524.47 1630 1520.93 Q1628.2 1517.37 1624.56 1517.37 M1624.56 1513.66 Q1630.37 1513.66 1633.43 1518.27 Q1636.51 1522.85 1636.51 1531.6 Q1636.51 1540.33 1633.43 1544.94 Q1630.37 1549.52 1624.56 1549.52 Q1618.75 1549.52 1615.67 1544.94 Q1612.62 1540.33 1612.62 1531.6 Q1612.62 1522.85 1615.67 1518.27 Q1618.75 1513.66 1624.56 1513.66 Z" fill="#000000" fill-rule="nonzero" fill-opacity="1"></path><path clip-path="url(#clip040)" d="M1974.7 1532.44 Q1971.37 1532.44 1969.45 1534.22 Q1967.55 1536 1967.55 1539.13 Q1967.55 1542.25 1969.45 1544.03 Q1971.37 1545.82 1974.7 1545.82 Q1978.04 1545.82 1979.96 1544.03 Q1981.88 1542.23 1981.88 1539.13 Q1981.88 1536 1979.96 1534.22 Q1978.06 1532.44 1974.7 1532.44 M1970.03 1530.45 Q1967.02 1529.7 1965.33 1527.64 Q1963.66 1525.58 1963.66 1522.62 Q1963.66 1518.48 1966.6 1516.07 Q1969.57 1513.66 1974.7 1513.66 Q1979.87 1513.66 1982.81 1516.07 Q1985.75 1518.48 1985.75 1522.62 Q1985.75 1525.58 1984.06 1527.64 Q1982.39 1529.7 1979.4 1530.45 Q1982.78 1531.23 1984.66 1533.52 Q1986.56 1535.82 1986.56 1539.13 Q1986.56 1544.15 1983.48 1546.83 Q1980.42 1549.52 1974.7 1549.52 Q1968.99 1549.52 1965.91 1546.83 Q1962.85 1544.15 1962.85 1539.13 Q1962.85 1535.82 1964.75 1533.52 Q1966.65 1531.23 1970.03 1530.45 M1968.32 1523.06 Q1968.32 1525.75 1969.98 1527.25 Q1971.67 1528.76 1974.7 1528.76 Q1977.71 1528.76 1979.4 1527.25 Q1981.12 1525.75 1981.12 1523.06 Q1981.12 1520.38 1979.4 1518.87 Q1977.71 1517.37 1974.7 1517.37 Q1971.67 1517.37 1969.98 1518.87 Q1968.32 1520.38 1968.32 1523.06 Z" fill="#000000" fill-rule="nonzero" fill-opacity="1"></path><path clip-path="url(#clip040)" d="M2004.87 1517.37 Q2001.26 1517.37 1999.43 1520.93 Q1997.62 1524.47 1997.62 1531.6 Q1997.62 1538.71 1999.43 1542.27 Q2001.26 1545.82 2004.87 1545.82 Q2008.5 1545.82 2010.31 1542.27 Q2012.14 1538.71 2012.14 1531.6 Q2012.14 1524.47 2010.31 1520.93 Q2008.5 1517.37 2004.87 1517.37 M2004.87 1513.66 Q2010.68 1513.66 2013.73 1518.27 Q2016.81 1522.85 2016.81 1531.6 Q2016.81 1540.33 2013.73 1544.94 Q2010.68 1549.52 2004.87 1549.52 Q1999.06 1549.52 1995.98 1544.94 Q1992.92 1540.33 1992.92 1531.6 Q1992.92 1522.85 1995.98 1518.27 Q1999.06 1513.66 2004.87 1513.66 Z" fill="#000000" fill-rule="nonzero" fill-opacity="1"></path><polyline clip-path="url(#clip040)" style="stroke:#000000; stroke-linecap:round; stroke-linejoin:round; stroke-width:4; stroke-opacity:1; fill:none" points="413.928,1486.45 413.928,265.204 "></polyline>
<polyline clip-path="url(#clip040)" style="stroke:#000000; stroke-linecap:round; stroke-linejoin:round; stroke-width:4; stroke-opacity:1; fill:none" points="413.928,1451.88 432.825,1451.88 "></polyline>
<polyline clip-path="url(#clip040)" style="stroke:#000000; stroke-linecap:round; stroke-linejoin:round; stroke-width:4; stroke-opacity:1; fill:none" points="413.928,1067.85 432.825,1067.85 "></polyline>
<polyline clip-path="url(#clip040)" style="stroke:#000000; stroke-linecap:round; stroke-linejoin:round; stroke-width:4; stroke-opacity:1; fill:none" points="413.928,683.807 432.825,683.807 "></polyline>
<polyline clip-path="url(#clip040)" style="stroke:#000000; stroke-linecap:round; stroke-linejoin:round; stroke-width:4; stroke-opacity:1; fill:none" points="413.928,299.768 432.825,299.768 "></polyline>
<path clip-path="url(#clip040)" d="M143.106 1251.28 L134.759 1261.23 L139.263 1265.01 Q141.763 1267.11 144.215 1266.96 Q146.667 1266.81 148.675 1264.42 Q150.669 1262.04 150.39 1259.6 Q150.111 1257.16 147.61 1255.06 L143.106 1251.28 M141.994 1245.34 L150.08 1252.12 Q154.531 1255.86 155.105 1259.78 Q155.711 1263.7 152.452 1267.59 Q149.164 1271.51 145.195 1271.59 Q141.244 1271.69 136.793 1267.96 L132.289 1264.18 L123.362 1274.82 L119.78 1271.81 L141.994 1245.34 Z" fill="#000000" fill-rule="nonzero" fill-opacity="1"></path><path clip-path="url(#clip040)" d="M157.309 1286.29 Q153.354 1282.97 151.071 1282.6 Q148.787 1282.22 146.957 1284.4 Q145.498 1286.14 145.77 1288.12 Q146.075 1290.1 148.043 1291.75 Q150.756 1294.03 153.994 1293.48 Q157.265 1292.93 159.944 1289.74 L160.554 1289.01 L157.309 1286.29 M164.947 1290.4 L155.439 1301.73 L152.177 1298.99 L154.706 1295.98 Q152.071 1296.85 149.675 1296.32 Q147.294 1295.77 144.883 1293.75 Q141.833 1291.19 141.453 1287.97 Q141.105 1284.75 143.515 1281.88 Q146.327 1278.52 149.99 1278.7 Q153.671 1278.88 158.121 1282.62 L162.696 1286.46 L162.964 1286.14 Q164.854 1283.89 164.391 1281.41 Q163.961 1278.94 161.283 1276.69 Q159.581 1275.26 157.625 1274.32 Q155.669 1273.37 153.495 1272.94 L156.025 1269.92 Q158.396 1270.73 160.363 1271.81 Q162.345 1272.87 163.941 1274.21 Q168.25 1277.82 168.503 1281.84 Q168.756 1285.86 164.947 1290.4 Z" fill="#000000" fill-rule="nonzero" fill-opacity="1"></path><path clip-path="url(#clip040)" d="M190.995 1298.72 L188.406 1301.81 Q187.618 1299.94 186.426 1298.33 Q185.234 1296.73 183.638 1295.39 Q181.209 1293.35 179.36 1293.07 Q177.529 1292.8 176.28 1294.29 Q175.327 1295.42 175.646 1296.81 Q175.979 1298.18 178.112 1300.96 L179.021 1302.15 Q181.872 1305.81 182.18 1308.4 Q182.521 1310.98 180.483 1313.41 Q178.161 1316.18 174.609 1315.94 Q171.074 1315.73 167.243 1312.51 Q165.647 1311.17 164.177 1309.4 Q162.71 1307.65 161.316 1305.42 L164.143 1302.06 Q165.163 1304.51 166.517 1306.46 Q167.886 1308.4 169.606 1309.84 Q171.911 1311.78 173.807 1312.04 Q175.718 1312.28 176.923 1310.84 Q178.039 1309.52 177.73 1308.05 Q177.438 1306.59 174.957 1303.39 L174.045 1302.17 Q171.548 1298.99 171.302 1296.55 Q171.07 1294.09 173.004 1291.78 Q175.355 1288.98 178.621 1289.12 Q181.886 1289.26 185.539 1292.33 Q187.348 1293.85 188.721 1295.45 Q190.093 1297.06 190.995 1298.72 Z" fill="#000000" fill-rule="nonzero" fill-opacity="1"></path><path clip-path="url(#clip040)" d="M219.828 1327.05 L228.845 1316.31 L232.108 1319.05 L208.956 1346.64 L205.693 1343.9 L208.193 1340.92 Q205.676 1341.83 203.369 1341.38 Q201.095 1340.92 198.896 1339.07 Q195.296 1336.05 195.437 1331.28 Q195.595 1326.51 199.523 1321.83 Q203.451 1317.15 208.114 1316.17 Q212.794 1315.2 216.394 1318.22 Q218.593 1320.06 219.424 1322.24 Q220.288 1324.42 219.828 1327.05 M202.892 1324.66 Q199.872 1328.26 199.618 1331.55 Q199.396 1334.84 201.985 1337.01 Q204.574 1339.18 207.775 1338.39 Q210.99 1337.59 214.011 1333.99 Q217.031 1330.39 217.253 1327.1 Q217.489 1323.79 214.9 1321.62 Q212.311 1319.45 209.096 1320.25 Q205.913 1321.06 202.892 1324.66 Z" fill="#000000" fill-rule="nonzero" fill-opacity="1"></path><path clip-path="url(#clip040)" d="M241.681 1355.79 L240.342 1357.38 L225.34 1344.79 Q222.726 1348.34 223.047 1351.63 Q223.4 1354.92 226.645 1357.64 Q228.525 1359.22 230.667 1360.23 Q232.827 1361.26 235.339 1361.8 L232.75 1364.88 Q230.369 1364.15 228.198 1363 Q226.026 1361.84 224.129 1360.25 Q219.377 1356.26 218.914 1351.16 Q218.469 1346.07 222.427 1341.35 Q226.518 1336.48 231.538 1335.82 Q236.591 1335.17 241.06 1338.92 Q245.067 1342.28 245.218 1346.82 Q245.401 1351.35 241.681 1355.79 M239.222 1352.09 Q241.433 1349.38 241.3 1346.55 Q241.185 1343.74 238.774 1341.71 Q236.043 1339.42 233.099 1339.58 Q230.174 1339.75 227.574 1342.35 L239.222 1352.09 Z" fill="#000000" fill-rule="nonzero" fill-opacity="1"></path><path clip-path="url(#clip040)" d="M278.398 1372.06 L275.809 1375.15 Q275.021 1373.28 273.829 1371.67 Q272.637 1370.07 271.041 1368.73 Q268.612 1366.69 266.763 1366.41 Q264.933 1366.14 263.683 1367.63 Q262.73 1368.76 263.049 1370.15 Q263.382 1371.52 265.515 1374.3 L266.424 1375.49 Q269.275 1379.15 269.583 1381.74 Q269.924 1384.32 267.886 1386.75 Q265.565 1389.52 262.012 1389.28 Q258.477 1389.07 254.646 1385.85 Q253.051 1384.51 251.581 1382.74 Q250.113 1380.99 248.719 1378.76 L251.546 1375.4 Q252.566 1377.85 253.92 1379.8 Q255.289 1381.74 257.009 1383.18 Q259.314 1385.12 261.21 1385.38 Q263.121 1385.62 264.326 1384.18 Q265.442 1382.85 265.133 1381.39 Q264.841 1379.93 262.36 1376.73 L261.448 1375.51 Q258.951 1372.33 258.705 1369.89 Q258.473 1367.43 260.407 1365.12 Q262.758 1362.32 266.024 1362.46 Q269.29 1362.6 272.942 1365.67 Q274.751 1367.19 276.124 1368.79 Q277.497 1370.4 278.398 1372.06 Z" fill="#000000" fill-rule="nonzero" fill-opacity="1"></path><path clip-path="url(#clip040)" d="M285.148 1376.73 L288.411 1379.47 L271.746 1399.33 L268.484 1396.59 L285.148 1376.73 M291.636 1369 L294.899 1371.73 L291.432 1375.87 L288.169 1373.13 L291.636 1369 Z" fill="#000000" fill-rule="nonzero" fill-opacity="1"></path><path clip-path="url(#clip040)" d="M300.168 1405.86 Q303.144 1402.31 303.309 1399.13 Q303.491 1395.96 300.849 1393.74 Q298.225 1391.54 295.116 1392.25 Q292.026 1392.98 289.05 1396.53 Q286.089 1400.06 285.906 1403.23 Q285.741 1406.42 288.366 1408.62 Q291.008 1410.83 294.099 1410.1 Q297.207 1409.39 300.168 1405.86 M296.973 1416.29 Q292.718 1421.36 288.397 1421.94 Q284.062 1422.53 279.416 1418.63 Q277.696 1417.19 276.395 1415.65 Q275.078 1414.12 274.088 1412.38 L276.751 1409.21 Q277.533 1411.19 278.621 1412.74 Q279.71 1414.29 281.164 1415.51 Q284.373 1418.2 287.383 1417.86 Q290.377 1417.53 293.219 1414.14 L294.573 1412.53 Q292.09 1413.43 289.782 1412.98 Q287.475 1412.52 285.276 1410.68 Q281.623 1407.61 281.725 1402.95 Q281.827 1398.3 285.681 1393.7 Q289.549 1389.09 294.12 1388.18 Q298.69 1387.27 302.343 1390.34 Q304.542 1392.18 305.391 1394.38 Q306.24 1396.57 305.777 1399.17 L308.307 1396.16 L311.57 1398.9 L296.973 1416.29 Z" fill="#000000" fill-rule="nonzero" fill-opacity="1"></path><path clip-path="url(#clip040)" d="M328.193 1426.26 L318.134 1438.25 L314.872 1435.51 L324.841 1423.63 Q327.207 1420.81 327.283 1418.49 Q327.359 1416.16 325.16 1414.32 Q322.518 1412.1 319.579 1412.51 Q316.641 1412.91 314.2 1415.82 L304.782 1427.05 L301.501 1424.29 L318.166 1404.43 L321.447 1407.19 L318.858 1410.27 Q321.531 1409.46 323.853 1409.9 Q326.193 1410.35 328.268 1412.09 Q331.69 1414.96 331.66 1418.57 Q331.645 1422.15 328.193 1426.26 Z" fill="#000000" fill-rule="nonzero" fill-opacity="1"></path><path clip-path="url(#clip040)" d="M342.045 1441.3 Q338.091 1437.98 335.807 1437.61 Q333.523 1437.23 331.693 1439.41 Q330.235 1441.15 330.507 1443.13 Q330.811 1445.11 332.779 1446.76 Q335.492 1449.04 338.731 1448.49 Q342.002 1447.94 344.68 1444.75 L345.29 1444.02 L342.045 1441.3 M349.684 1445.41 L340.176 1456.74 L336.913 1454.01 L339.443 1450.99 Q336.808 1451.86 334.412 1451.33 Q332.031 1450.79 329.619 1448.76 Q326.569 1446.2 326.189 1442.98 Q325.841 1439.76 328.252 1436.89 Q331.064 1433.54 334.726 1433.71 Q338.407 1433.9 342.858 1437.63 L347.433 1441.47 L347.7 1441.15 Q349.59 1438.9 349.127 1436.43 Q348.697 1433.95 346.019 1431.7 Q344.317 1430.27 342.361 1429.33 Q340.405 1428.38 338.231 1427.95 L340.761 1424.93 Q343.132 1425.74 345.099 1426.82 Q347.082 1427.88 348.678 1429.22 Q352.987 1432.83 353.24 1436.85 Q353.493 1440.87 349.684 1445.41 Z" fill="#000000" fill-rule="nonzero" fill-opacity="1"></path><path clip-path="url(#clip040)" d="M370.049 1434.79 L373.311 1437.53 L350.159 1465.12 L346.896 1462.38 L370.049 1434.79 Z" fill="#000000" fill-rule="nonzero" fill-opacity="1"></path><path clip-path="url(#clip040)" d="M134.296 856.318 L131.365 859.812 Q130.144 857.125 128.737 855.129 Q127.33 853.132 125.646 851.719 Q122.72 849.264 120.172 849.059 Q117.641 848.87 115.886 850.962 Q114.413 852.718 114.7 854.5 Q115.02 856.28 117.502 859.299 L119.294 861.558 Q122.661 865.683 122.937 869.208 Q123.245 872.73 120.537 875.957 Q117.308 879.805 113.053 879.619 Q108.815 879.447 103.832 875.266 Q101.953 873.689 100.182 871.478 Q98.4288 869.282 96.8583 866.544 L99.9532 862.855 Q101.108 865.909 102.679 868.286 Q104.251 870.662 106.272 872.358 Q109.34 874.932 112.019 875.125 Q114.697 875.318 116.572 873.084 Q118.209 871.133 117.926 869.022 Q117.66 866.926 115.391 864.085 L113.567 861.829 Q110.229 857.668 109.866 854.463 Q109.503 851.258 112.048 848.226 Q114.994 844.715 119.155 844.761 Q123.334 844.823 127.678 848.468 Q129.54 850.031 131.19 851.989 Q132.84 853.948 134.296 856.318 Z" fill="#000000" fill-rule="nonzero" fill-opacity="1"></path><path clip-path="url(#clip040)" d="M136.515 867.971 L139.778 870.708 L123.113 890.569 L119.851 887.831 L136.515 867.971 M143.003 860.239 L146.265 862.977 L142.799 867.109 L139.536 864.371 L143.003 860.239 Z" fill="#000000" fill-rule="nonzero" fill-opacity="1"></path><path clip-path="url(#clip040)" d="M151.535 897.103 Q154.511 893.556 154.676 890.371 Q154.858 887.2 152.216 884.983 Q149.592 882.781 146.483 883.496 Q143.393 884.227 140.417 887.773 Q137.456 891.302 137.273 894.473 Q137.108 897.658 139.732 899.86 Q142.375 902.077 145.465 901.347 Q148.574 900.631 151.535 897.103 M148.34 907.536 Q144.085 912.608 139.764 913.183 Q135.429 913.776 130.783 909.877 Q129.063 908.434 127.761 906.888 Q126.445 905.361 125.455 903.623 L128.118 900.449 Q128.9 902.435 129.988 903.983 Q131.077 905.53 132.531 906.751 Q135.74 909.444 138.75 909.098 Q141.744 908.771 144.586 905.384 L145.94 903.77 Q143.456 904.677 141.149 904.222 Q138.842 903.767 136.643 901.922 Q132.99 898.856 133.092 894.198 Q133.194 889.539 137.048 884.946 Q140.916 880.336 145.486 879.427 Q150.057 878.517 153.71 881.583 Q155.908 883.428 156.758 885.621 Q157.607 887.814 157.144 890.417 L159.674 887.403 L162.937 890.141 L148.34 907.536 Z" fill="#000000" fill-rule="nonzero" fill-opacity="1"></path><path clip-path="url(#clip040)" d="M179.56 917.506 L169.501 929.493 L166.239 926.755 L176.208 914.874 Q178.573 912.055 178.649 909.732 Q178.726 907.408 176.527 905.563 Q173.885 903.346 170.946 903.751 Q168.008 904.156 165.567 907.064 L156.149 918.289 L152.868 915.536 L169.533 895.676 L172.814 898.428 L170.225 901.514 Q172.898 900.705 175.22 901.143 Q177.56 901.595 179.634 903.336 Q183.057 906.208 183.027 909.809 Q183.012 913.392 179.56 917.506 Z" fill="#000000" fill-rule="nonzero" fill-opacity="1"></path><path clip-path="url(#clip040)" d="M193.412 932.544 Q189.458 929.226 187.174 928.85 Q184.89 928.475 183.06 930.656 Q181.602 932.394 181.873 934.375 Q182.178 936.353 184.146 938.004 Q186.859 940.281 190.098 939.735 Q193.369 939.186 196.047 935.994 L196.657 935.267 L193.412 932.544 M201.051 936.657 L191.543 947.988 L188.28 945.25 L190.809 942.235 Q188.175 943.107 185.779 942.577 Q183.398 942.03 180.986 940.006 Q177.936 937.447 177.556 934.227 Q177.208 931.004 179.618 928.131 Q182.431 924.78 186.093 924.952 Q189.774 925.14 194.225 928.874 L198.8 932.713 L199.067 932.394 Q200.957 930.142 200.494 927.669 Q200.064 925.192 197.386 922.946 Q195.684 921.517 193.728 920.571 Q191.772 919.625 189.598 919.191 L192.128 916.176 Q194.499 916.987 196.466 918.064 Q198.449 919.123 200.044 920.462 Q204.353 924.078 204.607 928.097 Q204.86 932.117 201.051 936.657 Z" fill="#000000" fill-rule="nonzero" fill-opacity="1"></path><path clip-path="url(#clip040)" d="M221.415 926.035 L224.678 928.773 L201.526 956.365 L198.263 953.627 L221.415 926.035 Z" fill="#000000" fill-rule="nonzero" fill-opacity="1"></path><path clip-path="url(#clip040)" d="M246.464 973.645 L236.406 985.632 L233.143 982.895 L243.112 971.014 Q245.478 968.194 245.554 965.871 Q245.63 963.548 243.431 961.703 Q240.789 959.486 237.85 959.891 Q234.912 960.296 232.472 963.204 L223.053 974.428 L219.773 971.676 L242.925 944.084 L246.205 946.837 L237.129 957.653 Q239.802 956.844 242.124 957.282 Q244.464 957.735 246.539 959.475 Q249.961 962.347 249.931 965.948 Q249.916 969.531 246.464 973.645 Z" fill="#000000" fill-rule="nonzero" fill-opacity="1"></path><path clip-path="url(#clip040)" d="M249.153 982.973 L259.241 970.95 L262.504 973.688 L252.52 985.586 Q250.154 988.406 250.063 990.747 Q249.987 993.07 252.186 994.915 Q254.828 997.132 257.767 996.727 Q260.723 996.337 263.163 993.429 L272.612 982.169 L275.874 984.907 L259.21 1004.77 L255.947 1002.03 L258.506 998.979 Q255.8 999.791 253.478 999.353 Q251.189 998.913 249.114 997.172 Q245.692 994.3 245.704 990.685 Q245.716 987.069 249.153 982.973 M267.853 977.36 L267.853 977.36 Z" fill="#000000" fill-rule="nonzero" fill-opacity="1"></path><path clip-path="url(#clip040)" d="M294.859 1007.33 Q297.927 1006.16 300.507 1006.54 Q303.088 1006.93 305.393 1008.86 Q308.496 1011.46 308.35 1015.06 Q308.22 1018.64 304.857 1022.64 L294.799 1034.63 L291.518 1031.88 L301.487 1020 Q303.883 1017.14 304.033 1014.91 Q304.182 1012.68 302.108 1010.94 Q299.572 1008.81 296.687 1009.26 Q293.801 1009.71 291.361 1012.62 L281.943 1023.84 L278.662 1021.09 L288.631 1009.21 Q291.042 1006.34 291.177 1004.12 Q291.326 1001.89 289.216 1000.12 Q286.716 998.023 283.816 998.49 Q280.93 998.94 278.505 1001.83 L269.087 1013.05 L265.806 1010.3 L282.471 990.442 L285.751 993.195 L283.162 996.28 Q285.812 995.391 288.102 995.831 Q290.391 996.272 292.537 998.072 Q294.7 999.888 295.285 1002.25 Q295.887 1004.63 294.859 1007.33 Z" fill="#000000" fill-rule="nonzero" fill-opacity="1"></path><path clip-path="url(#clip040)" d="M318.709 1037.68 Q314.755 1034.36 312.471 1033.99 Q310.187 1033.61 308.357 1035.79 Q306.899 1037.53 307.171 1039.51 Q307.475 1041.49 309.444 1043.14 Q312.157 1045.42 315.395 1044.87 Q318.666 1044.32 321.344 1041.13 L321.954 1040.4 L318.709 1037.68 M326.348 1041.79 L316.84 1053.12 L313.577 1050.39 L316.107 1047.37 Q313.472 1048.24 311.076 1047.71 Q308.695 1047.17 306.283 1045.14 Q303.233 1042.58 302.853 1039.36 Q302.505 1036.14 304.916 1033.27 Q307.728 1029.92 311.391 1030.09 Q315.071 1030.28 319.522 1034.01 L324.097 1037.85 L324.365 1037.53 Q326.254 1035.28 325.791 1032.81 Q325.361 1030.33 322.684 1028.08 Q320.981 1026.65 319.025 1025.71 Q317.07 1024.76 314.896 1024.33 L317.425 1021.31 Q319.796 1022.12 321.764 1023.2 Q323.746 1024.26 325.342 1025.6 Q329.651 1029.21 329.904 1033.23 Q330.157 1037.25 326.348 1041.79 Z" fill="#000000" fill-rule="nonzero" fill-opacity="1"></path><path clip-path="url(#clip040)" d="M340.225 1038.9 L343.488 1041.64 L326.823 1061.5 L323.561 1058.76 L340.225 1038.9 M346.713 1031.17 L349.975 1033.91 L346.509 1038.04 L343.246 1035.3 L346.713 1031.17 Z" fill="#000000" fill-rule="nonzero" fill-opacity="1"></path><path clip-path="url(#clip040)" d="M360.218 1069.1 L350.159 1081.08 L346.896 1078.35 L356.865 1066.46 Q359.231 1063.64 359.307 1061.32 Q359.383 1059 357.185 1057.15 Q354.542 1054.94 351.604 1055.34 Q348.665 1055.75 346.225 1058.65 L336.807 1069.88 L333.526 1067.13 L350.191 1047.27 L353.471 1050.02 L350.882 1053.1 Q353.556 1052.29 355.878 1052.73 Q358.218 1053.19 360.292 1054.93 Q363.715 1057.8 363.685 1061.4 Q363.67 1064.98 360.218 1069.1 Z" fill="#000000" fill-rule="nonzero" fill-opacity="1"></path><path clip-path="url(#clip040)" d="M95.0723 439.367 L92.1411 442.86 Q90.9202 440.173 89.5133 438.177 Q88.1063 436.18 86.4217 434.767 Q83.4959 432.312 80.9477 432.108 Q78.4172 431.918 76.6615 434.011 Q75.1884 435.766 75.4758 437.548 Q75.7958 439.328 78.2781 442.347 L80.0695 444.606 Q83.4372 448.731 83.7127 452.256 Q84.0209 455.778 81.3128 459.005 Q78.084 462.853 73.8286 462.667 Q69.5909 462.496 64.6081 458.315 Q62.7285 456.737 60.9577 454.526 Q59.2047 452.33 57.6342 449.592 L60.7291 445.904 Q61.8835 448.957 63.4552 451.334 Q65.0268 453.71 67.0483 455.406 Q70.116 457.981 72.7947 458.173 Q75.4733 458.366 77.3481 456.132 Q78.9848 454.181 78.7015 452.07 Q78.436 449.974 76.1664 447.133 L74.3425 444.877 Q71.0045 440.716 70.6419 437.511 Q70.2794 434.306 72.8237 431.274 Q75.7698 427.763 79.9309 427.81 Q84.1096 427.871 88.4541 431.517 Q90.316 433.079 91.9661 435.038 Q93.6162 436.996 95.0723 439.367 Z" fill="#000000" fill-rule="nonzero" fill-opacity="1"></path><path clip-path="url(#clip040)" d="M97.2912 451.019 L100.554 453.757 L83.8892 473.617 L80.6264 470.879 L97.2912 451.019 M103.779 443.288 L107.041 446.025 L103.574 450.157 L100.312 447.419 L103.779 443.288 Z" fill="#000000" fill-rule="nonzero" fill-opacity="1"></path><path clip-path="url(#clip040)" d="M112.311 480.151 Q115.287 476.604 115.452 473.419 Q115.634 470.248 112.992 468.031 Q110.368 465.829 107.259 466.545 Q104.168 467.275 101.193 470.822 Q98.2316 474.35 98.0489 477.521 Q97.884 480.706 100.508 482.909 Q103.151 485.126 106.241 484.395 Q109.35 483.68 112.311 480.151 M109.116 490.584 Q104.86 495.656 100.54 496.231 Q96.2051 496.824 91.5592 492.926 Q89.8392 491.482 88.5374 489.937 Q87.2207 488.409 86.2308 486.672 L88.8942 483.498 Q89.6758 485.483 90.7642 487.031 Q91.8526 488.579 93.3066 489.799 Q96.5162 492.492 99.5257 492.146 Q102.52 491.819 105.362 488.432 L106.716 486.818 Q104.232 487.726 101.925 487.27 Q99.6178 486.815 97.419 484.97 Q93.7662 481.905 93.8679 477.246 Q93.9697 472.587 97.8234 467.994 Q101.692 463.384 106.262 462.475 Q110.833 461.566 114.486 464.631 Q116.684 466.476 117.533 468.669 Q118.383 470.862 117.92 473.466 L120.45 470.451 L123.713 473.189 L109.116 490.584 Z" fill="#000000" fill-rule="nonzero" fill-opacity="1"></path><path clip-path="url(#clip040)" d="M140.336 500.554 L130.277 512.541 L127.014 509.803 L136.984 497.923 Q139.349 495.103 139.425 492.78 Q139.501 490.456 137.303 488.611 Q134.66 486.394 131.722 486.799 Q128.783 487.204 126.343 490.112 L116.925 501.337 L113.644 498.584 L130.309 478.724 L133.589 481.477 L131 484.562 Q133.674 483.753 135.996 484.191 Q138.336 484.643 140.41 486.384 Q143.833 489.256 143.803 492.857 Q143.788 496.44 140.336 500.554 Z" fill="#000000" fill-rule="nonzero" fill-opacity="1"></path><path clip-path="url(#clip040)" d="M154.188 515.592 Q150.233 512.274 147.95 511.899 Q145.666 511.523 143.836 513.704 Q142.378 515.442 142.649 517.423 Q142.954 519.401 144.922 521.053 Q147.635 523.329 150.874 522.783 Q154.145 522.234 156.823 519.042 L157.433 518.315 L154.188 515.592 M161.826 519.705 L152.319 531.036 L149.056 528.298 L151.585 525.284 Q148.95 526.155 146.555 525.625 Q144.173 525.078 141.762 523.054 Q138.712 520.495 138.332 517.275 Q137.984 514.052 140.394 511.179 Q143.207 507.828 146.869 508.001 Q150.55 508.188 155 511.923 L159.575 515.761 L159.843 515.442 Q161.733 513.19 161.27 510.717 Q160.84 508.241 158.162 505.994 Q156.46 504.565 154.504 503.619 Q152.548 502.673 150.374 502.239 L152.904 499.224 Q155.275 500.036 157.242 501.112 Q159.224 502.171 160.82 503.51 Q165.129 507.126 165.382 511.146 Q165.636 515.166 161.826 519.705 Z" fill="#000000" fill-rule="nonzero" fill-opacity="1"></path><path clip-path="url(#clip040)" d="M182.191 509.084 L185.454 511.821 L162.302 539.413 L159.039 536.675 L182.191 509.084 Z" fill="#000000" fill-rule="nonzero" fill-opacity="1"></path><path clip-path="url(#clip040)" d="M194.997 533.004 L198.455 535.905 L190.674 557.781 L210.867 546.321 L214.325 549.222 L190.213 562.833 L185.78 559.113 L194.997 533.004 Z" fill="#000000" fill-rule="nonzero" fill-opacity="1"></path><path clip-path="url(#clip040)" d="M218.829 553.001 L222.092 555.739 L205.427 575.599 L202.164 572.862 L218.829 553.001 M225.317 545.27 L228.579 548.008 L225.112 552.139 L221.85 549.402 L225.317 545.27 Z" fill="#000000" fill-rule="nonzero" fill-opacity="1"></path><path clip-path="url(#clip040)" d="M234.829 583.378 Q237.849 579.779 238.071 576.49 Q238.325 573.198 235.736 571.025 Q233.147 568.853 229.931 569.66 Q226.749 570.464 223.728 574.064 Q220.708 577.664 220.453 580.956 Q220.232 584.245 222.821 586.417 Q225.41 588.589 228.593 587.785 Q231.808 586.978 234.829 583.378 M229.546 567.131 Q232.062 566.22 234.337 566.679 Q236.644 567.134 238.825 568.964 Q242.443 572 242.284 576.762 Q242.144 581.539 238.215 586.22 Q234.287 590.902 229.607 591.87 Q224.945 592.853 221.327 589.817 Q219.146 587.987 218.282 585.812 Q217.451 583.634 217.91 580.997 L215.411 583.976 L212.13 581.224 L235.282 553.632 L238.563 556.385 L229.546 567.131 Z" fill="#000000" fill-rule="nonzero" fill-opacity="1"></path><path clip-path="url(#clip040)" d="M260.92 593.517 Q260.638 592.737 260.101 592.044 Q259.597 591.349 258.817 590.695 Q256.05 588.373 253.043 588.932 Q250.068 589.488 247.241 592.857 L238.463 603.319 L235.182 600.567 L251.847 580.707 L255.127 583.459 L252.538 586.545 Q255.085 585.599 257.463 586.114 Q259.856 586.611 262.214 588.59 Q262.551 588.873 262.914 589.268 Q263.293 589.646 263.715 590.151 L260.92 593.517 Z" fill="#000000" fill-rule="nonzero" fill-opacity="1"></path><path clip-path="url(#clip040)" d="M267.64 610.79 Q263.685 607.471 261.402 607.096 Q259.118 606.721 257.288 608.902 Q255.83 610.64 256.101 612.621 Q256.406 614.598 258.374 616.25 Q261.087 618.527 264.326 617.98 Q267.597 617.431 270.275 614.239 L270.885 613.512 L267.64 610.79 M275.278 614.903 L265.771 626.234 L262.508 623.496 L265.037 620.481 Q262.402 621.353 260.007 620.823 Q257.625 620.275 255.214 618.252 Q252.164 615.693 251.784 612.473 Q251.436 609.25 253.846 606.377 Q256.659 603.026 260.321 603.198 Q264.002 603.385 268.452 607.12 L273.027 610.959 L273.295 610.64 Q275.185 608.388 274.722 605.914 Q274.292 603.438 271.614 601.191 Q269.912 599.763 267.956 598.817 Q266 597.871 263.826 597.436 L266.356 594.422 Q268.727 595.233 270.694 596.31 Q272.676 597.369 274.272 598.708 Q278.581 602.323 278.834 606.343 Q279.088 610.363 275.278 614.903 Z" fill="#000000" fill-rule="nonzero" fill-opacity="1"></path><path clip-path="url(#clip040)" d="M297.115 609.082 L292.383 614.721 L299.104 620.36 L296.976 622.896 L290.256 617.256 L281.209 628.038 Q279.17 630.467 279.246 631.709 Q279.34 632.966 281.379 634.677 L284.73 637.489 L282.439 640.22 L279.088 637.408 Q275.311 634.239 275.05 631.633 Q274.804 629.009 277.928 625.285 L286.975 614.504 L284.581 612.495 L286.709 609.959 L289.103 611.968 L293.834 606.329 L297.115 609.082 Z" fill="#000000" fill-rule="nonzero" fill-opacity="1"></path><path clip-path="url(#clip040)" d="M309.172 632.706 Q306.547 630.503 303.296 631.281 Q300.06 632.04 297.069 635.605 Q294.079 639.169 293.86 642.491 Q293.674 645.809 296.316 648.026 Q298.922 650.214 302.173 649.436 Q305.424 648.659 308.4 645.113 Q311.361 641.584 311.562 638.247 Q311.778 634.893 309.172 632.706 M311.493 629.939 Q315.748 633.51 315.857 638.315 Q315.965 643.12 311.858 648.014 Q307.766 652.89 303.001 653.636 Q298.25 654.364 293.995 650.793 Q289.721 647.207 289.613 642.402 Q289.537 637.595 293.629 632.718 Q297.736 627.824 302.469 627.081 Q307.219 626.353 311.493 629.939 Z" fill="#000000" fill-rule="nonzero" fill-opacity="1"></path><path clip-path="url(#clip040)" d="M325.614 642.604 L328.877 645.342 L312.212 665.202 L308.949 662.465 L325.614 642.604 M332.101 634.873 L335.364 637.611 L331.897 641.742 L328.634 639.005 L332.101 634.873 Z" fill="#000000" fill-rule="nonzero" fill-opacity="1"></path><path clip-path="url(#clip040)" d="M344.653 663.777 Q344.371 662.997 343.834 662.304 Q343.329 661.609 342.549 660.954 Q339.783 658.633 336.776 659.192 Q333.801 659.748 330.974 663.117 L322.195 673.579 L318.915 670.827 L335.579 650.966 L338.86 653.719 L336.271 656.805 Q338.817 655.859 341.195 656.374 Q343.588 656.871 345.947 658.85 Q346.284 659.132 346.647 659.528 Q347.025 659.906 347.447 660.411 L344.653 663.777 Z" fill="#000000" fill-rule="nonzero" fill-opacity="1"></path><path clip-path="url(#clip040)" d="M359.176 686.298 L357.837 687.894 L342.835 675.306 Q340.221 678.854 340.542 682.145 Q340.895 685.433 344.14 688.156 Q346.02 689.733 348.162 690.745 Q350.322 691.772 352.834 692.308 L350.245 695.393 Q347.864 694.665 345.693 693.508 Q343.521 692.35 341.624 690.758 Q336.872 686.771 336.409 681.668 Q335.964 676.581 339.922 671.864 Q344.013 666.988 349.033 666.335 Q354.086 665.679 358.555 669.429 Q362.562 672.792 362.713 677.33 Q362.896 681.865 359.176 686.298 M356.717 682.603 Q358.928 679.895 358.795 677.065 Q358.68 674.249 356.269 672.225 Q353.538 669.934 350.594 670.092 Q347.669 670.266 345.069 672.86 L356.717 682.603 Z" fill="#000000" fill-rule="nonzero" fill-opacity="1"></path><path clip-path="url(#clip040)" d="M134.296 68.3847 L131.365 71.878 Q130.144 69.1916 128.737 67.1952 Q127.33 65.1987 125.646 63.7852 Q122.72 61.3301 120.172 61.1258 Q117.641 60.9365 115.886 63.0289 Q114.413 64.7844 114.7 66.5666 Q115.02 68.346 117.502 71.3657 L119.294 73.6242 Q122.661 77.7494 122.937 81.2744 Q123.245 84.7964 120.537 88.0237 Q117.308 91.8717 113.053 91.6853 Q108.815 91.5139 103.832 87.3328 Q101.953 85.7556 100.182 83.5445 Q98.4288 81.3483 96.8583 78.6103 L99.9532 74.922 Q101.108 77.9757 102.679 80.352 Q104.251 82.7284 106.272 84.4247 Q109.34 86.9988 112.019 87.1916 Q114.697 87.3845 116.572 85.1502 Q118.209 83.1996 117.926 81.0884 Q117.66 78.9921 115.391 76.151 L113.567 73.8953 Q110.229 69.7346 109.866 66.5295 Q109.503 63.3244 112.048 60.2921 Q114.994 56.7811 119.155 56.8278 Q123.334 56.8894 127.678 60.5348 Q129.54 62.0972 131.19 64.0559 Q132.84 66.0147 134.296 68.3847 Z" fill="#000000" fill-rule="nonzero" fill-opacity="1"></path><path clip-path="url(#clip040)" d="M136.515 80.0371 L139.778 82.7749 L123.113 102.635 L119.851 99.8974 L136.515 80.0371 M143.003 72.3058 L146.265 75.0436 L142.799 79.1752 L139.536 76.4374 L143.003 72.3058 Z" fill="#000000" fill-rule="nonzero" fill-opacity="1"></path><path clip-path="url(#clip040)" d="M151.535 109.169 Q154.511 105.623 154.676 102.437 Q154.858 99.2664 152.216 97.0494 Q149.592 94.8472 146.483 95.5628 Q143.393 96.2933 140.417 99.8398 Q137.456 103.369 137.273 106.539 Q137.108 109.725 139.732 111.927 Q142.375 114.144 145.465 113.413 Q148.574 112.698 151.535 109.169 M148.34 119.603 Q144.085 124.674 139.764 125.249 Q135.429 125.842 130.783 121.944 Q129.063 120.501 127.761 118.955 Q126.445 117.427 125.455 115.69 L128.118 112.516 Q128.9 114.501 129.988 116.049 Q131.077 117.597 132.531 118.817 Q135.74 121.51 138.75 121.165 Q141.744 120.837 144.586 117.45 L145.94 115.836 Q143.456 116.744 141.149 116.288 Q138.842 115.833 136.643 113.988 Q132.99 110.923 133.092 106.264 Q133.194 101.605 137.048 97.0127 Q140.916 92.4023 145.486 91.4931 Q150.057 90.5839 153.71 93.649 Q155.908 95.494 156.758 97.6872 Q157.607 99.8803 157.144 102.484 L159.674 99.4694 L162.937 102.207 L148.34 119.603 Z" fill="#000000" fill-rule="nonzero" fill-opacity="1"></path><path clip-path="url(#clip040)" d="M179.56 129.572 L169.501 141.559 L166.239 138.822 L176.208 126.941 Q178.573 124.121 178.649 121.798 Q178.726 119.475 176.527 117.63 Q173.885 115.413 170.946 115.818 Q168.008 116.223 165.567 119.131 L156.149 130.355 L152.868 127.603 L169.533 107.742 L172.814 110.495 L170.225 113.58 Q172.898 112.771 175.22 113.209 Q177.56 113.662 179.634 115.402 Q183.057 118.274 183.027 121.875 Q183.012 125.458 179.56 129.572 Z" fill="#000000" fill-rule="nonzero" fill-opacity="1"></path><path clip-path="url(#clip040)" d="M193.412 144.61 Q189.458 141.292 187.174 140.917 Q184.89 140.542 183.06 142.723 Q181.602 144.46 181.873 146.441 Q182.178 148.419 184.146 150.071 Q186.859 152.347 190.098 151.801 Q193.369 151.252 196.047 148.06 L196.657 147.333 L193.412 144.61 M201.051 148.723 L191.543 160.054 L188.28 157.316 L190.809 154.302 Q188.175 155.173 185.779 154.644 Q183.398 154.096 180.986 152.072 Q177.936 149.513 177.556 146.293 Q177.208 143.07 179.618 140.198 Q182.431 136.846 186.093 137.019 Q189.774 137.206 194.225 140.941 L198.8 144.78 L199.067 144.46 Q200.957 142.208 200.494 139.735 Q200.064 137.259 197.386 135.012 Q195.684 133.584 193.728 132.637 Q191.772 131.691 189.598 131.257 L192.128 128.243 Q194.499 129.054 196.466 130.13 Q198.449 131.189 200.044 132.529 Q204.353 136.144 204.607 140.164 Q204.86 144.184 201.051 148.723 Z" fill="#000000" fill-rule="nonzero" fill-opacity="1"></path><path clip-path="url(#clip040)" d="M221.415 138.102 L224.678 140.84 L201.526 168.431 L198.263 165.694 L221.415 138.102 Z" fill="#000000" fill-rule="nonzero" fill-opacity="1"></path><path clip-path="url(#clip040)" d="M246.464 185.712 L236.406 197.699 L233.143 194.961 L243.112 183.08 Q245.478 180.261 245.554 177.937 Q245.63 175.614 243.431 173.769 Q240.789 171.552 237.85 171.957 Q234.912 172.362 232.472 175.27 L223.053 186.495 L219.773 183.742 L242.925 156.15 L246.205 158.903 L237.129 169.72 Q239.802 168.911 242.124 169.349 Q244.464 169.801 246.539 171.542 Q249.961 174.414 249.931 178.015 Q249.916 181.598 246.464 185.712 Z" fill="#000000" fill-rule="nonzero" fill-opacity="1"></path><path clip-path="url(#clip040)" d="M249.153 195.039 L259.241 183.016 L262.504 185.754 L252.52 197.653 Q250.154 200.472 250.063 202.813 Q249.987 205.137 252.186 206.982 Q254.828 209.199 257.767 208.794 Q260.723 208.404 263.163 205.496 L272.612 194.235 L275.874 196.973 L259.21 216.834 L255.947 214.096 L258.506 211.046 Q255.8 211.858 253.478 211.42 Q251.189 210.979 249.114 209.239 Q245.692 206.367 245.704 202.751 Q245.716 199.135 249.153 195.039 M267.853 189.427 L267.853 189.427 Z" fill="#000000" fill-rule="nonzero" fill-opacity="1"></path><path clip-path="url(#clip040)" d="M294.859 219.4 Q297.927 218.228 300.507 218.61 Q303.088 218.992 305.393 220.926 Q308.496 223.53 308.35 227.125 Q308.22 230.702 304.857 234.709 L294.799 246.696 L291.518 243.944 L301.487 232.063 Q303.883 229.208 304.033 226.977 Q304.182 224.745 302.108 223.005 Q299.572 220.877 296.687 221.326 Q293.801 221.776 291.361 224.684 L281.943 235.909 L278.662 233.156 L288.631 221.275 Q291.042 218.403 291.177 216.189 Q291.326 213.958 289.216 212.187 Q286.716 210.089 283.816 210.557 Q280.93 211.006 278.505 213.897 L269.087 225.121 L265.806 222.369 L282.471 202.508 L285.751 205.261 L283.162 208.346 Q285.812 207.457 288.102 207.898 Q290.391 208.338 292.537 210.139 Q294.7 211.954 295.285 214.318 Q295.887 216.697 294.859 219.4 Z" fill="#000000" fill-rule="nonzero" fill-opacity="1"></path><path clip-path="url(#clip040)" d="M318.709 249.747 Q314.755 246.429 312.471 246.054 Q310.187 245.679 308.357 247.86 Q306.899 249.597 307.171 251.578 Q307.475 253.556 309.444 255.208 Q312.157 257.484 315.395 256.938 Q318.666 256.389 321.344 253.197 L321.954 252.47 L318.709 249.747 M326.348 253.86 L316.84 265.191 L313.577 262.453 L316.107 259.439 Q313.472 260.31 311.076 259.78 Q308.695 259.233 306.283 257.209 Q303.233 254.65 302.853 251.43 Q302.505 248.207 304.916 245.335 Q307.728 241.983 311.391 242.156 Q315.071 242.343 319.522 246.078 L324.097 249.917 L324.365 249.597 Q326.254 247.345 325.791 244.872 Q325.361 242.396 322.684 240.149 Q320.981 238.721 319.025 237.774 Q317.07 236.828 314.896 236.394 L317.425 233.38 Q319.796 234.191 321.764 235.267 Q323.746 236.326 325.342 237.665 Q329.651 241.281 329.904 245.301 Q330.157 249.321 326.348 253.86 Z" fill="#000000" fill-rule="nonzero" fill-opacity="1"></path><path clip-path="url(#clip040)" d="M340.225 250.97 L343.488 253.708 L326.823 273.568 L323.561 270.83 L340.225 250.97 M346.713 243.239 L349.975 245.977 L346.509 250.108 L343.246 247.37 L346.713 243.239 Z" fill="#000000" fill-rule="nonzero" fill-opacity="1"></path><path clip-path="url(#clip040)" d="M360.218 281.162 L350.159 293.149 L346.896 290.411 L356.865 278.531 Q359.231 275.711 359.307 273.388 Q359.383 271.065 357.185 269.22 Q354.542 267.003 351.604 267.407 Q348.665 267.812 346.225 270.721 L336.807 281.945 L333.526 279.193 L350.191 259.332 L353.471 262.085 L350.882 265.17 Q353.556 264.361 355.878 264.799 Q358.218 265.252 360.292 266.992 Q363.715 269.864 363.685 273.465 Q363.67 277.048 360.218 281.162 Z" fill="#000000" fill-rule="nonzero" fill-opacity="1"></path><path clip-path="url(#clip040)" d="M107.55 138.937 L106.211 140.532 L91.2093 127.945 Q88.5951 131.492 88.9159 134.783 Q89.2692 138.071 92.5143 140.794 Q94.3939 142.371 96.5363 143.383 Q98.6964 144.41 101.208 144.946 L98.6189 148.032 Q96.2385 147.304 94.0669 146.146 Q91.8954 144.989 89.9981 143.397 Q85.2458 139.409 84.7829 134.307 Q84.3379 129.219 88.2957 124.503 Q92.3875 119.626 97.4075 118.973 Q102.46 118.318 106.929 122.067 Q110.936 125.43 111.087 129.968 Q111.27 134.503 107.55 138.937 M105.091 135.241 Q107.302 132.534 107.169 129.703 Q107.055 126.887 104.643 124.863 Q101.912 122.572 98.9685 122.731 Q96.0427 122.905 93.4435 125.498 L105.091 135.241 Z" fill="#000000" fill-rule="nonzero" fill-opacity="1"></path><path clip-path="url(#clip040)" d="M128.512 131.385 L123.781 137.024 L130.501 142.663 L128.373 145.199 L121.653 139.559 L112.606 150.341 Q110.568 152.77 110.644 154.012 Q110.737 155.269 112.776 156.98 L116.128 159.792 L113.836 162.523 L110.485 159.711 Q106.708 156.542 106.447 153.936 Q106.201 151.312 109.326 147.588 L118.372 136.807 L115.978 134.798 L118.106 132.262 L120.5 134.271 L125.232 128.632 L128.512 131.385 Z" fill="#000000" fill-rule="nonzero" fill-opacity="1"></path><path clip-path="url(#clip040)" d="M143.995 153.986 L147.453 156.887 L139.673 178.764 L159.866 167.303 L163.324 170.204 L139.211 183.815 L134.778 180.096 L143.995 153.986 Z" fill="#000000" fill-rule="nonzero" fill-opacity="1"></path><path clip-path="url(#clip040)" d="M167.828 173.984 L171.091 176.722 L154.426 196.582 L151.163 193.844 L167.828 173.984 M174.315 166.252 L177.578 168.99 L174.111 173.122 L170.848 170.384 L174.315 166.252 Z" fill="#000000" fill-rule="nonzero" fill-opacity="1"></path><path clip-path="url(#clip040)" d="M183.827 204.361 Q186.848 200.761 187.069 197.472 Q187.323 194.18 184.735 192.008 Q182.146 189.835 178.93 190.643 Q175.747 191.447 172.727 195.046 Q169.706 198.646 169.452 201.938 Q169.23 205.227 171.819 207.4 Q174.408 209.572 177.591 208.768 Q180.807 207.961 183.827 204.361 M178.544 188.113 Q181.061 187.203 183.336 187.661 Q185.643 188.116 187.824 189.947 Q191.441 192.982 191.283 197.744 Q191.142 202.521 187.214 207.203 Q183.286 211.884 178.606 212.852 Q173.943 213.835 170.326 210.8 Q168.145 208.97 167.281 206.794 Q166.449 204.616 166.909 201.98 L164.409 204.959 L161.129 202.206 L184.281 174.615 L187.561 177.367 L178.544 188.113 Z" fill="#000000" fill-rule="nonzero" fill-opacity="1"></path><path clip-path="url(#clip040)" d="M209.919 214.5 Q209.637 213.719 209.1 213.027 Q208.595 212.332 207.815 211.677 Q205.049 209.356 202.042 209.915 Q199.067 210.471 196.24 213.84 L187.461 224.302 L184.181 221.549 L200.846 201.689 L204.126 204.442 L201.537 207.527 Q204.083 206.581 206.461 207.096 Q208.855 207.593 211.213 209.572 Q211.55 209.855 211.913 210.25 Q212.291 210.628 212.713 211.133 L209.919 214.5 Z" fill="#000000" fill-rule="nonzero" fill-opacity="1"></path><path clip-path="url(#clip040)" d="M216.638 231.772 Q212.684 228.454 210.4 228.079 Q208.116 227.703 206.286 229.884 Q204.828 231.622 205.1 233.603 Q205.405 235.581 207.373 237.232 Q210.086 239.509 213.324 238.963 Q216.595 238.414 219.273 235.222 L219.884 234.495 L216.638 231.772 M224.277 235.885 L214.769 247.216 L211.506 244.478 L214.036 241.464 Q211.401 242.335 209.005 241.805 Q206.624 241.258 204.213 239.234 Q201.163 236.675 200.782 233.455 Q200.435 230.232 202.845 227.359 Q205.657 224.008 209.32 224.18 Q213 224.368 217.451 228.103 L222.026 231.941 L222.294 231.622 Q224.184 229.37 223.721 226.897 Q223.291 224.421 220.613 222.174 Q218.911 220.745 216.955 219.799 Q214.999 218.853 212.825 218.419 L215.354 215.404 Q217.726 216.216 219.693 217.292 Q221.675 218.351 223.271 219.69 Q227.58 223.306 227.833 227.326 Q228.086 231.345 224.277 235.885 Z" fill="#000000" fill-rule="nonzero" fill-opacity="1"></path><path clip-path="url(#clip040)" d="M246.114 230.064 L241.382 235.703 L248.102 241.342 L245.975 243.878 L239.254 238.239 L230.208 249.02 Q228.169 251.449 228.245 252.691 Q228.338 253.948 230.378 255.66 L233.729 258.472 L231.438 261.202 L228.086 258.39 Q224.309 255.221 224.048 252.615 Q223.802 249.991 226.927 246.267 L235.974 235.486 L233.58 233.477 L235.708 230.942 L238.101 232.95 L242.833 227.311 L246.114 230.064 Z" fill="#000000" fill-rule="nonzero" fill-opacity="1"></path><path clip-path="url(#clip040)" d="M258.17 253.688 Q255.546 251.486 252.295 252.263 Q249.059 253.023 246.068 256.587 Q243.077 260.151 242.858 263.473 Q242.672 266.792 245.315 269.009 Q247.921 271.196 251.172 270.419 Q254.423 269.641 257.399 266.095 Q260.36 262.566 260.561 259.23 Q260.777 255.875 258.17 253.688 M260.491 250.922 Q264.747 254.493 264.855 259.298 Q264.963 264.102 260.857 268.996 Q256.765 273.873 252 274.618 Q247.249 275.346 242.993 271.775 Q238.72 268.189 238.612 263.384 Q238.536 258.577 242.628 253.701 Q246.735 248.806 251.467 248.064 Q256.218 247.336 260.491 250.922 Z" fill="#000000" fill-rule="nonzero" fill-opacity="1"></path><path clip-path="url(#clip040)" d="M274.612 263.587 L277.875 266.324 L261.21 286.185 L257.948 283.447 L274.612 263.587 M281.1 255.855 L284.363 258.593 L280.896 262.725 L277.633 259.987 L281.1 255.855 Z" fill="#000000" fill-rule="nonzero" fill-opacity="1"></path><path clip-path="url(#clip040)" d="M293.651 284.76 Q293.369 283.979 292.832 283.287 Q292.328 282.592 291.548 281.937 Q288.781 279.616 285.774 280.175 Q282.8 280.731 279.973 284.1 L271.194 294.562 L267.913 291.809 L284.578 271.949 L287.859 274.701 L285.27 277.787 Q287.816 276.841 290.194 277.356 Q292.587 277.853 294.945 279.832 Q295.282 280.115 295.646 280.51 Q296.024 280.888 296.446 281.393 L293.651 284.76 Z" fill="#000000" fill-rule="nonzero" fill-opacity="1"></path><path clip-path="url(#clip040)" d="M308.175 307.281 L306.836 308.876 L291.834 296.289 Q289.22 299.836 289.54 303.127 Q289.894 306.415 293.139 309.138 Q295.018 310.715 297.161 311.727 Q299.321 312.754 301.832 313.29 L299.243 316.376 Q296.863 315.648 294.691 314.49 Q292.52 313.333 290.623 311.741 Q285.87 307.753 285.407 302.651 Q284.962 297.563 288.92 292.847 Q293.012 287.97 298.032 287.317 Q303.085 286.662 307.553 290.411 Q311.561 293.774 311.711 298.312 Q311.894 302.847 308.175 307.281 M305.715 303.585 Q307.927 300.878 307.794 298.047 Q307.679 295.231 305.267 293.207 Q302.537 290.916 299.593 291.075 Q296.667 291.249 294.068 293.842 L305.715 303.585 Z" fill="#000000" fill-rule="nonzero" fill-opacity="1"></path><path clip-path="url(#clip040)" d="M933.691 16.7545 L933.691 25.383 Q929.559 21.5346 924.86 19.6307 Q920.202 17.7268 914.936 17.7268 Q904.565 17.7268 899.056 24.0867 Q893.547 30.4061 893.547 42.3968 Q893.547 54.3469 899.056 60.7069 Q904.565 67.0263 914.936 67.0263 Q920.202 67.0263 924.86 65.1223 Q929.559 63.2184 933.691 59.3701 L933.691 67.9175 Q929.397 70.8341 924.577 72.2924 Q919.797 73.7508 914.45 73.7508 Q900.717 73.7508 892.818 65.3654 Q884.918 56.9395 884.918 42.3968 Q884.918 27.8135 892.818 19.4281 Q900.717 11.0023 914.45 11.0023 Q919.878 11.0023 924.658 12.4606 Q929.478 13.8784 933.691 16.7545 Z" fill="#000000" fill-rule="nonzero" fill-opacity="1"></path><path clip-path="url(#clip040)" d="M966.625 49.7694 Q957.592 49.7694 954.108 51.8354 Q950.624 53.9013 950.624 58.8839 Q950.624 62.8538 953.217 65.2034 Q955.85 67.5124 960.346 67.5124 Q966.544 67.5124 970.271 63.1374 Q974.038 58.7219 974.038 51.4303 L974.038 49.7694 L966.625 49.7694 M981.492 46.6907 L981.492 72.576 L974.038 72.576 L974.038 65.6895 Q971.486 69.8214 967.678 71.8063 Q963.871 73.7508 958.361 73.7508 Q951.394 73.7508 947.262 69.8619 Q943.17 65.9325 943.17 59.3701 Q943.17 51.7138 948.275 47.825 Q953.419 43.9361 963.587 43.9361 L974.038 43.9361 L974.038 43.2069 Q974.038 38.0623 970.636 35.2672 Q967.273 32.4315 961.156 32.4315 Q957.268 32.4315 953.581 33.3632 Q949.895 34.295 946.492 36.1584 L946.492 29.2718 Q950.584 27.692 954.432 26.9223 Q958.28 26.1121 961.926 26.1121 Q971.77 26.1121 976.631 31.2163 Q981.492 36.3204 981.492 46.6907 Z" fill="#000000" fill-rule="nonzero" fill-opacity="1"></path><path clip-path="url(#clip040)" d="M1004.22 14.324 L1004.22 27.2059 L1019.57 27.2059 L1019.57 32.9987 L1004.22 32.9987 L1004.22 57.6282 Q1004.22 63.1779 1005.72 64.7578 Q1007.26 66.3376 1011.91 66.3376 L1019.57 66.3376 L1019.57 72.576 L1011.91 72.576 Q1003.29 72.576 1000 69.3758 Q996.723 66.1351 996.723 57.6282 L996.723 32.9987 L991.255 32.9987 L991.255 27.2059 L996.723 27.2059 L996.723 14.324 L1004.22 14.324 Z" fill="#000000" fill-rule="nonzero" fill-opacity="1"></path><path clip-path="url(#clip040)" d="M1068.18 48.0275 L1068.18 51.6733 L1033.91 51.6733 Q1034.4 59.3701 1038.53 63.421 Q1042.7 67.4314 1050.11 67.4314 Q1054.41 67.4314 1058.42 66.3781 Q1062.47 65.3249 1066.44 63.2184 L1066.44 70.267 Q1062.43 71.9684 1058.22 72.8596 Q1054 73.7508 1049.67 73.7508 Q1038.81 73.7508 1032.45 67.4314 Q1026.13 61.1119 1026.13 50.3365 Q1026.13 39.1965 1032.13 32.6746 Q1038.16 26.1121 1048.37 26.1121 Q1057.53 26.1121 1062.83 32.0264 Q1068.18 37.9003 1068.18 48.0275 M1060.73 45.84 Q1060.65 39.7232 1057.28 36.0774 Q1053.96 32.4315 1048.45 32.4315 Q1042.22 32.4315 1038.45 35.9558 Q1034.72 39.4801 1034.15 45.8805 L1060.73 45.84 M1053.56 6.22219 L1061.62 6.22219 L1048.41 21.4536 L1042.22 21.4536 L1053.56 6.22219 Z" fill="#000000" fill-rule="nonzero" fill-opacity="1"></path><path clip-path="url(#clip040)" d="M1110.27 49.3643 Q1110.27 41.2625 1106.91 36.8065 Q1103.59 32.3505 1097.55 32.3505 Q1091.56 32.3505 1088.19 36.8065 Q1084.87 41.2625 1084.87 49.3643 Q1084.87 57.4256 1088.19 61.8816 Q1091.56 66.3376 1097.55 66.3376 Q1103.59 66.3376 1106.91 61.8816 Q1110.27 57.4256 1110.27 49.3643 M1117.72 66.9452 Q1117.72 78.5308 1112.58 84.1616 Q1107.43 89.8329 1096.82 89.8329 Q1092.89 89.8329 1089.41 89.2252 Q1085.92 88.6581 1082.64 87.4428 L1082.64 80.1917 Q1085.92 81.9741 1089.12 82.8248 Q1092.32 83.6755 1095.65 83.6755 Q1102.98 83.6755 1106.62 79.8271 Q1110.27 76.0193 1110.27 68.282 L1110.27 64.5957 Q1107.96 68.6061 1104.36 70.5911 Q1100.75 72.576 1095.73 72.576 Q1087.38 72.576 1082.28 66.2161 Q1077.17 59.8562 1077.17 49.3643 Q1077.17 38.832 1082.28 32.472 Q1087.38 26.1121 1095.73 26.1121 Q1100.75 26.1121 1104.36 28.0971 Q1107.96 30.082 1110.27 34.0924 L1110.27 27.2059 L1117.72 27.2059 L1117.72 66.9452 Z" fill="#000000" fill-rule="nonzero" fill-opacity="1"></path><path clip-path="url(#clip040)" d="M1150.66 32.4315 Q1144.66 32.4315 1141.18 37.1306 Q1137.69 41.7891 1137.69 49.9314 Q1137.69 58.0738 1141.14 62.7728 Q1144.62 67.4314 1150.66 67.4314 Q1156.61 67.4314 1160.1 62.7323 Q1163.58 58.0333 1163.58 49.9314 Q1163.58 41.8701 1160.1 37.1711 Q1156.61 32.4315 1150.66 32.4315 M1150.66 26.1121 Q1160.38 26.1121 1165.93 32.4315 Q1171.48 38.7509 1171.48 49.9314 Q1171.48 61.0714 1165.93 67.4314 Q1160.38 73.7508 1150.66 73.7508 Q1140.9 73.7508 1135.35 67.4314 Q1129.84 61.0714 1129.84 49.9314 Q1129.84 38.7509 1135.35 32.4315 Q1140.9 26.1121 1150.66 26.1121 Z" fill="#000000" fill-rule="nonzero" fill-opacity="1"></path><path clip-path="url(#clip040)" d="M1210.13 34.1734 Q1208.87 33.4443 1207.37 33.1202 Q1205.91 32.7556 1204.13 32.7556 Q1197.81 32.7556 1194.41 36.8875 Q1191.05 40.9789 1191.05 48.6757 L1191.05 72.576 L1183.55 72.576 L1183.55 27.2059 L1191.05 27.2059 L1191.05 34.2544 Q1193.39 30.1225 1197.16 28.1376 Q1200.93 26.1121 1206.32 26.1121 Q1207.09 26.1121 1208.02 26.2337 Q1208.95 26.3147 1210.08 26.5172 L1210.13 34.1734 Z" fill="#000000" fill-rule="nonzero" fill-opacity="1"></path><path clip-path="url(#clip040)" d="M1217.94 27.2059 L1225.4 27.2059 L1225.4 72.576 L1217.94 72.576 L1217.94 27.2059 M1217.94 9.54393 L1225.4 9.54393 L1225.4 18.9825 L1217.94 18.9825 L1217.94 9.54393 Z" fill="#000000" fill-rule="nonzero" fill-opacity="1"></path><path clip-path="url(#clip040)" d="M1269.92 28.5427 L1269.92 35.5912 Q1266.76 33.9709 1263.35 33.1607 Q1259.95 32.3505 1256.31 32.3505 Q1250.76 32.3505 1247.96 34.0519 Q1245.21 35.7533 1245.21 39.156 Q1245.21 41.7486 1247.19 43.2475 Q1249.18 44.7058 1255.17 46.0426 L1257.72 46.6097 Q1265.66 48.3111 1268.98 51.4303 Q1272.35 54.509 1272.35 60.0587 Q1272.35 66.3781 1267.32 70.0644 Q1262.34 73.7508 1253.59 73.7508 Q1249.95 73.7508 1245.98 73.0216 Q1242.05 72.3329 1237.67 70.9151 L1237.67 63.2184 Q1241.8 65.3654 1245.81 66.4591 Q1249.82 67.5124 1253.75 67.5124 Q1259.02 67.5124 1261.86 65.73 Q1264.69 63.9071 1264.69 60.6258 Q1264.69 57.5877 1262.62 55.9673 Q1260.6 54.3469 1253.67 52.8481 L1251.08 52.2405 Q1244.15 50.7821 1241.07 47.7845 Q1238 44.7463 1238 39.4801 Q1238 33.0797 1242.53 29.5959 Q1247.07 26.1121 1255.41 26.1121 Q1259.55 26.1121 1263.19 26.7198 Q1266.84 27.3274 1269.92 28.5427 Z" fill="#000000" fill-rule="nonzero" fill-opacity="1"></path><path clip-path="url(#clip040)" d="M1304.84 49.7694 Q1295.8 49.7694 1292.32 51.8354 Q1288.83 53.9013 1288.83 58.8839 Q1288.83 62.8538 1291.43 65.2034 Q1294.06 67.5124 1298.56 67.5124 Q1304.75 67.5124 1308.48 63.1374 Q1312.25 58.7219 1312.25 51.4303 L1312.25 49.7694 L1304.84 49.7694 M1319.7 46.6907 L1319.7 72.576 L1312.25 72.576 L1312.25 65.6895 Q1309.7 69.8214 1305.89 71.8063 Q1302.08 73.7508 1296.57 73.7508 Q1289.6 73.7508 1285.47 69.8619 Q1281.38 65.9325 1281.38 59.3701 Q1281.38 51.7138 1286.48 47.825 Q1291.63 43.9361 1301.8 43.9361 L1312.25 43.9361 L1312.25 43.2069 Q1312.25 38.0623 1308.85 35.2672 Q1305.48 32.4315 1299.37 32.4315 Q1295.48 32.4315 1291.79 33.3632 Q1288.1 34.295 1284.7 36.1584 L1284.7 29.2718 Q1288.79 27.692 1292.64 26.9223 Q1296.49 26.1121 1300.14 26.1121 Q1309.98 26.1121 1314.84 31.2163 Q1319.7 36.3204 1319.7 46.6907 Z" fill="#000000" fill-rule="nonzero" fill-opacity="1"></path><path clip-path="url(#clip040)" d="M1342.43 14.324 L1342.43 27.2059 L1357.78 27.2059 L1357.78 32.9987 L1342.43 32.9987 L1342.43 57.6282 Q1342.43 63.1779 1343.93 64.7578 Q1345.47 66.3376 1350.12 66.3376 L1357.78 66.3376 L1357.78 72.576 L1350.12 72.576 Q1341.5 72.576 1338.21 69.3758 Q1334.93 66.1351 1334.93 57.6282 L1334.93 32.9987 L1329.46 32.9987 L1329.46 27.2059 L1334.93 27.2059 L1334.93 14.324 L1342.43 14.324 Z" fill="#000000" fill-rule="nonzero" fill-opacity="1"></path><path clip-path="url(#clip040)" d="M1367.58 27.2059 L1375.04 27.2059 L1375.04 72.576 L1367.58 72.576 L1367.58 27.2059 M1367.58 9.54393 L1375.04 9.54393 L1375.04 18.9825 L1367.58 18.9825 L1367.58 9.54393 Z" fill="#000000" fill-rule="nonzero" fill-opacity="1"></path><path clip-path="url(#clip040)" d="M1408.21 32.4315 Q1402.22 32.4315 1398.74 37.1306 Q1395.25 41.7891 1395.25 49.9314 Q1395.25 58.0738 1398.69 62.7728 Q1402.18 67.4314 1408.21 67.4314 Q1414.17 67.4314 1417.65 62.7323 Q1421.14 58.0333 1421.14 49.9314 Q1421.14 41.8701 1417.65 37.1711 Q1414.17 32.4315 1408.21 32.4315 M1408.21 26.1121 Q1417.94 26.1121 1423.49 32.4315 Q1429.04 38.7509 1429.04 49.9314 Q1429.04 61.0714 1423.49 67.4314 Q1417.94 73.7508 1408.21 73.7508 Q1398.45 73.7508 1392.9 67.4314 Q1387.39 61.0714 1387.39 49.9314 Q1387.39 38.7509 1392.9 32.4315 Q1398.45 26.1121 1408.21 26.1121 Z" fill="#000000" fill-rule="nonzero" fill-opacity="1"></path><path clip-path="url(#clip040)" d="M1479.11 45.1919 L1479.11 72.576 L1471.65 72.576 L1471.65 45.4349 Q1471.65 38.994 1469.14 35.7938 Q1466.63 32.5936 1461.61 32.5936 Q1455.57 32.5936 1452.09 36.4419 Q1448.6 40.2903 1448.6 46.9338 L1448.6 72.576 L1441.11 72.576 L1441.11 27.2059 L1448.6 27.2059 L1448.6 34.2544 Q1451.28 30.163 1454.88 28.1376 Q1458.53 26.1121 1463.27 26.1121 Q1471.08 26.1121 1475.09 30.9732 Q1479.11 35.7938 1479.11 45.1919 Z" fill="#000000" fill-rule="nonzero" fill-opacity="1"></path><path clip-path="url(#clip040)" d="M1550.2 34.0924 L1550.2 9.54393 L1557.65 9.54393 L1557.65 72.576 L1550.2 72.576 L1550.2 65.7705 Q1547.85 69.8214 1544.24 71.8063 Q1540.68 73.7508 1535.66 73.7508 Q1527.43 73.7508 1522.25 67.1883 Q1517.1 60.6258 1517.1 49.9314 Q1517.1 39.2371 1522.25 32.6746 Q1527.43 26.1121 1535.66 26.1121 Q1540.68 26.1121 1544.24 28.0971 Q1547.85 30.0415 1550.2 34.0924 M1524.8 49.9314 Q1524.8 58.1548 1528.16 62.8538 Q1531.56 67.5124 1537.48 67.5124 Q1543.39 67.5124 1546.8 62.8538 Q1550.2 58.1548 1550.2 49.9314 Q1550.2 41.7081 1546.8 37.0496 Q1543.39 32.3505 1537.48 32.3505 Q1531.56 32.3505 1528.16 37.0496 Q1524.8 41.7081 1524.8 49.9314 Z" fill="#000000" fill-rule="nonzero" fill-opacity="1"></path><path clip-path="url(#clip040)" d="M1572.24 54.671 L1572.24 27.2059 L1579.69 27.2059 L1579.69 54.3874 Q1579.69 60.8284 1582.2 64.0691 Q1584.71 67.2693 1589.74 67.2693 Q1595.77 67.2693 1599.25 63.421 Q1602.78 59.5726 1602.78 52.9291 L1602.78 27.2059 L1610.23 27.2059 L1610.23 72.576 L1602.78 72.576 L1602.78 65.6084 Q1600.07 69.7404 1596.46 71.7658 Q1592.9 73.7508 1588.16 73.7508 Q1580.34 73.7508 1576.29 68.8897 Q1572.24 64.0286 1572.24 54.671 M1590.99 26.1121 L1590.99 26.1121 Z" fill="#000000" fill-rule="nonzero" fill-opacity="1"></path><path clip-path="url(#clip040)" d="M1680.88 28.5427 L1680.88 35.5912 Q1677.72 33.9709 1674.32 33.1607 Q1670.92 32.3505 1667.27 32.3505 Q1661.72 32.3505 1658.92 34.0519 Q1656.17 35.7533 1656.17 39.156 Q1656.17 41.7486 1658.16 43.2475 Q1660.14 44.7058 1666.14 46.0426 L1668.69 46.6097 Q1676.63 48.3111 1679.95 51.4303 Q1683.31 54.509 1683.31 60.0587 Q1683.31 66.3781 1678.29 70.0644 Q1673.31 73.7508 1664.56 73.7508 Q1660.91 73.7508 1656.94 73.0216 Q1653.01 72.3329 1648.64 70.9151 L1648.64 63.2184 Q1652.77 65.3654 1656.78 66.4591 Q1660.79 67.5124 1664.72 67.5124 Q1669.98 67.5124 1672.82 65.73 Q1675.65 63.9071 1675.65 60.6258 Q1675.65 57.5877 1673.59 55.9673 Q1671.56 54.3469 1664.64 52.8481 L1662.04 52.2405 Q1655.12 50.7821 1652.04 47.7845 Q1648.96 44.7463 1648.96 39.4801 Q1648.96 33.0797 1653.5 29.5959 Q1658.03 26.1121 1666.38 26.1121 Q1670.51 26.1121 1674.16 26.7198 Q1677.8 27.3274 1680.88 28.5427 Z" fill="#000000" fill-rule="nonzero" fill-opacity="1"></path><path clip-path="url(#clip040)" d="M1695.18 27.2059 L1702.63 27.2059 L1702.63 72.576 L1695.18 72.576 L1695.18 27.2059 M1695.18 9.54393 L1702.63 9.54393 L1702.63 18.9825 L1695.18 18.9825 L1695.18 9.54393 Z" fill="#000000" fill-rule="nonzero" fill-opacity="1"></path><path clip-path="url(#clip040)" d="M1748.09 49.3643 Q1748.09 41.2625 1744.72 36.8065 Q1741.4 32.3505 1735.37 32.3505 Q1729.37 32.3505 1726.01 36.8065 Q1722.69 41.2625 1722.69 49.3643 Q1722.69 57.4256 1726.01 61.8816 Q1729.37 66.3376 1735.37 66.3376 Q1741.4 66.3376 1744.72 61.8816 Q1748.09 57.4256 1748.09 49.3643 M1755.54 66.9452 Q1755.54 78.5308 1750.39 84.1616 Q1745.25 89.8329 1734.64 89.8329 Q1730.71 89.8329 1727.22 89.2252 Q1723.74 88.6581 1720.46 87.4428 L1720.46 80.1917 Q1723.74 81.9741 1726.94 82.8248 Q1730.14 83.6755 1733.46 83.6755 Q1740.79 83.6755 1744.44 79.8271 Q1748.09 76.0193 1748.09 68.282 L1748.09 64.5957 Q1745.78 68.6061 1742.17 70.5911 Q1738.57 72.576 1733.54 72.576 Q1725.2 72.576 1720.09 66.2161 Q1714.99 59.8562 1714.99 49.3643 Q1714.99 38.832 1720.09 32.472 Q1725.2 26.1121 1733.54 26.1121 Q1738.57 26.1121 1742.17 28.0971 Q1745.78 30.082 1748.09 34.0924 L1748.09 27.2059 L1755.54 27.2059 L1755.54 66.9452 Z" fill="#000000" fill-rule="nonzero" fill-opacity="1"></path><path clip-path="url(#clip040)" d="M1808.61 45.1919 L1808.61 72.576 L1801.15 72.576 L1801.15 45.4349 Q1801.15 38.994 1798.64 35.7938 Q1796.13 32.5936 1791.11 32.5936 Q1785.07 32.5936 1781.59 36.4419 Q1778.1 40.2903 1778.1 46.9338 L1778.1 72.576 L1770.61 72.576 L1770.61 27.2059 L1778.1 27.2059 L1778.1 34.2544 Q1780.78 30.163 1784.38 28.1376 Q1788.03 26.1121 1792.77 26.1121 Q1800.58 26.1121 1804.6 30.9732 Q1808.61 35.7938 1808.61 45.1919 Z" fill="#000000" fill-rule="nonzero" fill-opacity="1"></path><path clip-path="url(#clip040)" d="M1844.09 49.7694 Q1835.06 49.7694 1831.57 51.8354 Q1828.09 53.9013 1828.09 58.8839 Q1828.09 62.8538 1830.68 65.2034 Q1833.32 67.5124 1837.81 67.5124 Q1844.01 67.5124 1847.74 63.1374 Q1851.5 58.7219 1851.5 51.4303 L1851.5 49.7694 L1844.09 49.7694 M1858.96 46.6907 L1858.96 72.576 L1851.5 72.576 L1851.5 65.6895 Q1848.95 69.8214 1845.14 71.8063 Q1841.34 73.7508 1835.83 73.7508 Q1828.86 73.7508 1824.73 69.8619 Q1820.64 65.9325 1820.64 59.3701 Q1820.64 51.7138 1825.74 47.825 Q1830.89 43.9361 1841.05 43.9361 L1851.5 43.9361 L1851.5 43.2069 Q1851.5 38.0623 1848.1 35.2672 Q1844.74 32.4315 1838.62 32.4315 Q1834.73 32.4315 1831.05 33.3632 Q1827.36 34.295 1823.96 36.1584 L1823.96 29.2718 Q1828.05 27.692 1831.9 26.9223 Q1835.75 26.1121 1839.39 26.1121 Q1849.24 26.1121 1854.1 31.2163 Q1858.96 36.3204 1858.96 46.6907 Z" fill="#000000" fill-rule="nonzero" fill-opacity="1"></path><path clip-path="url(#clip040)" d="M1874.31 9.54393 L1881.76 9.54393 L1881.76 72.576 L1874.31 72.576 L1874.31 9.54393 Z" fill="#000000" fill-rule="nonzero" fill-opacity="1"></path><polyline clip-path="url(#clip042)" style="stroke:#0000ff; stroke-linecap:round; stroke-linejoin:round; stroke-width:12; stroke-opacity:1; fill:none" points="468.8,1451.88 471.239,1451.88 473.678,1451.88 476.116,1451.88 478.555,1451.88 480.994,1451.88 483.433,1451.88 485.872,1451.88 488.31,1451.88 490.749,1451.88 493.188,1451.88 495.627,1451.88 498.065,1451.88 500.504,1451.88 502.943,1451.88 505.382,1451.88 507.821,1451.88 510.259,1451.88 512.698,1451.88 515.137,1451.88 517.576,1451.88 520.014,1451.88 522.453,1451.88 524.892,1451.88 527.331,1451.88 529.77,1451.88 532.208,1451.88 534.647,1451.88 537.086,1451.88 539.525,1451.88 541.963,1451.88 544.402,1451.88 "></polyline>
<polyline clip-path="url(#clip042)" style="stroke:#ffff00; stroke-linecap:round; stroke-linejoin:round; stroke-width:12; stroke-opacity:1; fill:none" points="546.841,1067.85 549.28,1067.85 551.719,1067.85 "></polyline>
<polyline clip-path="url(#clip042)" style="stroke:#0000ff; stroke-linecap:round; stroke-linejoin:round; stroke-width:12; stroke-opacity:1; fill:none" points="554.157,1451.88 556.596,1451.88 "></polyline>
<polyline clip-path="url(#clip042)" style="stroke:#ffff00; stroke-linecap:round; stroke-linejoin:round; stroke-width:12; stroke-opacity:1; fill:none" points="559.035,1067.85 561.474,1067.85 563.912,1067.85 566.351,1067.85 568.79,1067.85 571.229,1067.85 573.668,1067.85 576.106,1067.85 578.545,1067.85 "></polyline>
<polyline clip-path="url(#clip042)" style="stroke:#ffff00; stroke-linecap:round; stroke-linejoin:round; stroke-width:12; stroke-opacity:1; fill:none" points="583.423,1067.85 585.861,1067.85 588.3,1067.85 590.739,1067.85 593.178,1067.85 595.617,1067.85 598.055,1067.85 600.494,1067.85 602.933,1067.85 605.372,1067.85 607.81,1067.85 610.249,1067.85 612.688,1067.85 615.127,1067.85 617.566,1067.85 620.004,1067.85 622.443,1067.85 624.882,1067.85 627.321,1067.85 629.759,1067.85 632.198,1067.85 634.637,1067.85 637.076,1067.85 639.515,1067.85 641.953,1067.85 644.392,1067.85 646.831,1067.85 649.27,1067.85 651.708,1067.85 654.147,1067.85 "></polyline>
<polyline clip-path="url(#clip042)" style="stroke:#ffff00; stroke-linecap:round; stroke-linejoin:round; stroke-width:12; stroke-opacity:1; fill:none" points="659.025,1067.85 661.464,1067.85 663.902,1067.85 666.341,1067.85 668.78,1067.85 671.219,1067.85 673.657,1067.85 676.096,1067.85 678.535,1067.85 680.974,1067.85 683.413,1067.85 685.851,1067.85 688.29,1067.85 690.729,1067.85 693.168,1067.85 "></polyline>
<polyline clip-path="url(#clip042)" style="stroke:#ffff00; stroke-linecap:round; stroke-linejoin:round; stroke-width:12; stroke-opacity:1; fill:none" points="698.045,1067.85 700.484,1067.85 702.923,1067.85 705.362,1067.85 707.8,1067.85 710.239,1067.85 "></polyline>
<polyline clip-path="url(#clip042)" style="stroke:#0000ff; stroke-linecap:round; stroke-linejoin:round; stroke-width:12; stroke-opacity:1; fill:none" points="712.678,1451.88 715.117,1451.88 717.555,1451.88 "></polyline>
<polyline clip-path="url(#clip042)" style="stroke:#ffff00; stroke-linecap:round; stroke-linejoin:round; stroke-width:12; stroke-opacity:1; fill:none" points="719.994,1067.85 722.433,1067.85 724.872,1067.85 727.311,1067.85 729.749,1067.85 732.188,1067.85 734.627,1067.85 737.066,1067.85 739.504,1067.85 741.943,1067.85 744.382,1067.85 746.821,1067.85 749.26,1067.85 751.698,1067.85 754.137,1067.85 756.576,1067.85 759.015,1067.85 761.453,1067.85 763.892,1067.85 766.331,1067.85 768.77,1067.85 "></polyline>
<polyline clip-path="url(#clip042)" style="stroke:#ffff00; stroke-linecap:round; stroke-linejoin:round; stroke-width:12; stroke-opacity:1; fill:none" points="773.647,1067.85 776.086,1067.85 778.525,1067.85 780.964,1067.85 783.402,1067.85 785.841,1067.85 788.28,1067.85 790.719,1067.85 793.158,1067.85 "></polyline>
<polyline clip-path="url(#clip042)" style="stroke:#0000ff; stroke-linecap:round; stroke-linejoin:round; stroke-width:12; stroke-opacity:1; fill:none" points="795.596,1451.88 798.035,1451.88 "></polyline>
<polyline clip-path="url(#clip042)" style="stroke:#ffff00; stroke-linecap:round; stroke-linejoin:round; stroke-width:12; stroke-opacity:1; fill:none" points="800.474,1067.85 802.913,1067.85 805.351,1067.85 807.79,1067.85 "></polyline>
<polyline clip-path="url(#clip042)" style="stroke:#ffff00; stroke-linecap:round; stroke-linejoin:round; stroke-width:12; stroke-opacity:1; fill:none" points="812.668,1067.85 815.107,1067.85 817.545,1067.85 819.984,1067.85 822.423,1067.85 824.862,1067.85 827.3,1067.85 829.739,1067.85 832.178,1067.85 834.617,1067.85 837.056,1067.85 839.494,1067.85 841.933,1067.85 844.372,1067.85 "></polyline>
<polyline clip-path="url(#clip042)" style="stroke:#ffff00; stroke-linecap:round; stroke-linejoin:round; stroke-width:12; stroke-opacity:1; fill:none" points="849.249,1067.85 851.688,1067.85 854.127,1067.85 856.566,1067.85 859.005,1067.85 861.443,1067.85 863.882,1067.85 866.321,1067.85 868.76,1067.85 871.198,1067.85 873.637,1067.85 876.076,1067.85 878.515,1067.85 880.954,1067.85 883.392,1067.85 "></polyline>
<polyline clip-path="url(#clip042)" style="stroke:#ffff00; stroke-linecap:round; stroke-linejoin:round; stroke-width:12; stroke-opacity:1; fill:none" points="888.27,1067.85 890.709,1067.85 893.147,1067.85 895.586,1067.85 898.025,1067.85 900.464,1067.85 902.903,1067.85 905.341,1067.85 "></polyline>
<polyline clip-path="url(#clip042)" style="stroke:#0000ff; stroke-linecap:round; stroke-linejoin:round; stroke-width:12; stroke-opacity:1; fill:none" points="912.658,1451.88 915.096,1451.88 917.535,1451.88 919.974,1451.88 922.413,1451.88 924.852,1451.88 927.29,1451.88 929.729,1451.88 932.168,1451.88 934.607,1451.88 937.045,1451.88 939.484,1451.88 941.923,1451.88 "></polyline>
<polyline clip-path="url(#clip042)" style="stroke:#ffff00; stroke-linecap:round; stroke-linejoin:round; stroke-width:12; stroke-opacity:1; fill:none" points="944.362,1067.85 946.801,1067.85 949.239,1067.85 951.678,1067.85 954.117,1067.85 956.556,1067.85 958.994,1067.85 961.433,1067.85 963.872,1067.85 966.311,1067.85 968.75,1067.85 971.188,1067.85 973.627,1067.85 976.066,1067.85 978.505,1067.85 980.943,1067.85 983.382,1067.85 985.821,1067.85 "></polyline>
<polyline clip-path="url(#clip042)" style="stroke:#ffff00; stroke-linecap:round; stroke-linejoin:round; stroke-width:12; stroke-opacity:1; fill:none" points="990.699,1067.85 993.137,1067.85 995.576,1067.85 998.015,1067.85 "></polyline>
<polyline clip-path="url(#clip042)" style="stroke:#ffff00; stroke-linecap:round; stroke-linejoin:round; stroke-width:12; stroke-opacity:1; fill:none" points="1002.89,1067.85 1005.33,1067.85 1007.77,1067.85 1010.21,1067.85 1012.65,1067.85 1015.09,1067.85 1017.53,1067.85 1019.96,1067.85 1022.4,1067.85 1024.84,1067.85 1027.28,1067.85 1029.72,1067.85 1032.16,1067.85 1034.6,1067.85 1037.04,1067.85 1039.47,1067.85 1041.91,1067.85 1044.35,1067.85 1046.79,1067.85 "></polyline>
<polyline clip-path="url(#clip042)" style="stroke:#ffff00; stroke-linecap:round; stroke-linejoin:round; stroke-width:12; stroke-opacity:1; fill:none" points="1051.67,1067.85 1054.11,1067.85 1056.55,1067.85 1058.98,1067.85 1061.42,1067.85 1063.86,1067.85 1066.3,1067.85 1068.74,1067.85 1071.18,1067.85 1073.62,1067.85 "></polyline>
<polyline clip-path="url(#clip042)" style="stroke:#ffff00; stroke-linecap:round; stroke-linejoin:round; stroke-width:12; stroke-opacity:1; fill:none" points="1078.49,1067.85 1080.93,1067.85 1083.37,1067.85 1085.81,1067.85 1088.25,1067.85 1090.69,1067.85 1093.13,1067.85 1095.57,1067.85 1098,1067.85 1100.44,1067.85 1102.88,1067.85 1105.32,1067.85 1107.76,1067.85 1110.2,1067.85 1112.64,1067.85 1115.08,1067.85 1117.51,1067.85 1119.95,1067.85 1122.39,1067.85 1124.83,1067.85 1127.27,1067.85 1129.71,1067.85 1132.15,1067.85 "></polyline>
<polyline clip-path="url(#clip042)" style="stroke:#0000ff; stroke-linecap:round; stroke-linejoin:round; stroke-width:12; stroke-opacity:1; fill:none" points="1134.59,1451.88 1137.03,1451.88 1139.46,1451.88 1141.9,1451.88 1144.34,1451.88 1146.78,1451.88 1149.22,1451.88 1151.66,1451.88 1154.1,1451.88 1156.54,1451.88 1158.97,1451.88 1161.41,1451.88 "></polyline>
<polyline clip-path="url(#clip042)" style="stroke:#008000; stroke-linecap:round; stroke-linejoin:round; stroke-width:12; stroke-opacity:1; fill:none" points="1163.85,683.807 1166.29,683.807 1168.73,683.807 "></polyline>
<polyline clip-path="url(#clip042)" style="stroke:#0000ff; stroke-linecap:round; stroke-linejoin:round; stroke-width:12; stroke-opacity:1; fill:none" points="1171.17,1451.88 1173.61,1451.88 1176.05,1451.88 1178.48,1451.88 1180.92,1451.88 1183.36,1451.88 1185.8,1451.88 1188.24,1451.88 1190.68,1451.88 1193.12,1451.88 1195.56,1451.88 1197.99,1451.88 1200.43,1451.88 1202.87,1451.88 1205.31,1451.88 1207.75,1451.88 1210.19,1451.88 1212.63,1451.88 "></polyline>
<polyline clip-path="url(#clip042)" style="stroke:#008000; stroke-linecap:round; stroke-linejoin:round; stroke-width:12; stroke-opacity:1; fill:none" points="1215.07,683.807 1217.5,683.807 1219.94,683.807 1222.38,683.807 1224.82,683.807 1227.26,683.807 1229.7,683.807 1232.14,683.807 1234.58,683.807 1237.02,683.807 1239.45,683.807 1241.89,683.807 1244.33,683.807 1246.77,683.807 1249.21,683.807 1251.65,683.807 1254.09,683.807 1256.53,683.807 1258.96,683.807 1261.4,683.807 1263.84,683.807 1266.28,683.807 1268.72,683.807 1271.16,683.807 1273.6,683.807 1276.04,683.807 1278.47,683.807 1280.91,683.807 1283.35,683.807 1285.79,683.807 1288.23,683.807 1290.67,683.807 1293.11,683.807 1295.55,683.807 1297.98,683.807 1300.42,683.807 1302.86,683.807 1305.3,683.807 1307.74,683.807 1310.18,683.807 1312.62,683.807 1315.06,683.807 1317.49,683.807 1319.93,683.807 1322.37,683.807 1324.81,683.807 1327.25,683.807 1329.69,683.807 1332.13,683.807 1334.57,683.807 1337,683.807 1339.44,683.807 1341.88,683.807 1344.32,683.807 1346.76,683.807 1349.2,683.807 1351.64,683.807 1354.08,683.807 1356.52,683.807 1358.95,683.807 1361.39,683.807 1363.83,683.807 1366.27,683.807 1368.71,683.807 1371.15,683.807 1373.59,683.807 1376.03,683.807 1378.46,683.807 1380.9,683.807 1383.34,683.807 1385.78,683.807 1388.22,683.807 1390.66,683.807 1393.1,683.807 1395.54,683.807 1397.97,683.807 1400.41,683.807 1402.85,683.807 1405.29,683.807 1407.73,683.807 1410.17,683.807 1412.61,683.807 1415.05,683.807 1417.48,683.807 1419.92,683.807 1422.36,683.807 1424.8,683.807 1427.24,683.807 1429.68,683.807 1432.12,683.807 1434.56,683.807 1436.99,683.807 1439.43,683.807 1441.87,683.807 1444.31,683.807 1446.75,683.807 1449.19,683.807 1451.63,683.807 1454.07,683.807 1456.51,683.807 1458.94,683.807 1461.38,683.807 1463.82,683.807 1466.26,683.807 1468.7,683.807 1471.14,683.807 1473.58,683.807 "></polyline>
<polyline clip-path="url(#clip042)" style="stroke:#008000; stroke-linecap:round; stroke-linejoin:round; stroke-width:12; stroke-opacity:1; fill:none" points="1478.45,683.807 1480.89,683.807 1483.33,683.807 1485.77,683.807 1488.21,683.807 1490.65,683.807 1493.09,683.807 1495.53,683.807 1497.96,683.807 1500.4,683.807 1502.84,683.807 1505.28,683.807 1507.72,683.807 1510.16,683.807 1512.6,683.807 1515.04,683.807 1517.47,683.807 1519.91,683.807 1522.35,683.807 1524.79,683.807 1527.23,683.807 1529.67,683.807 1532.11,683.807 "></polyline>
<polyline clip-path="url(#clip042)" style="stroke:#0000ff; stroke-linecap:round; stroke-linejoin:round; stroke-width:12; stroke-opacity:1; fill:none" points="1534.55,1451.88 1536.98,1451.88 1539.42,1451.88 1541.86,1451.88 1544.3,1451.88 1546.74,1451.88 1549.18,1451.88 1551.62,1451.88 1554.06,1451.88 1556.49,1451.88 1558.93,1451.88 1561.37,1451.88 1563.81,1451.88 1566.25,1451.88 1568.69,1451.88 1571.13,1451.88 1573.57,1451.88 1576.01,1451.88 1578.44,1451.88 1580.88,1451.88 1583.32,1451.88 1585.76,1451.88 1588.2,1451.88 1590.64,1451.88 1593.08,1451.88 1595.52,1451.88 1597.95,1451.88 1600.39,1451.88 1602.83,1451.88 1605.27,1451.88 1607.71,1451.88 1610.15,1451.88 1612.59,1451.88 1615.03,1451.88 1617.46,1451.88 1619.9,1451.88 1622.34,1451.88 1624.78,1451.88 1627.22,1451.88 1629.66,1451.88 1632.1,1451.88 1634.54,1451.88 1636.97,1451.88 1639.41,1451.88 1641.85,1451.88 1644.29,1451.88 1646.73,1451.88 1649.17,1451.88 1651.61,1451.88 1654.05,1451.88 1656.48,1451.88 1658.92,1451.88 1661.36,1451.88 1663.8,1451.88 1666.24,1451.88 1668.68,1451.88 1671.12,1451.88 1673.56,1451.88 1676,1451.88 1678.43,1451.88 1680.87,1451.88 1683.31,1451.88 1685.75,1451.88 1688.19,1451.88 1690.63,1451.88 1693.07,1451.88 1695.51,1451.88 1697.94,1451.88 1700.38,1451.88 1702.82,1451.88 1705.26,1451.88 1707.7,1451.88 1710.14,1451.88 1712.58,1451.88 1715.02,1451.88 1717.45,1451.88 1719.89,1451.88 1722.33,1451.88 1724.77,1451.88 1727.21,1451.88 1729.65,1451.88 1732.09,1451.88 1734.53,1451.88 1736.96,1451.88 1739.4,1451.88 1741.84,1451.88 1744.28,1451.88 1746.72,1451.88 1749.16,1451.88 1751.6,1451.88 1754.04,1451.88 1756.47,1451.88 1758.91,1451.88 1761.35,1451.88 1763.79,1451.88 1766.23,1451.88 1768.67,1451.88 1771.11,1451.88 1773.55,1451.88 1775.98,1451.88 1778.42,1451.88 1780.86,1451.88 1783.3,1451.88 1785.74,1451.88 1788.18,1451.88 1790.62,1451.88 1793.06,1451.88 1795.5,1451.88 1797.93,1451.88 1800.37,1451.88 1802.81,1451.88 1805.25,1451.88 1807.69,1451.88 1810.13,1451.88 1812.57,1451.88 1815.01,1451.88 1817.44,1451.88 1819.88,1451.88 1822.32,1451.88 1824.76,1451.88 1827.2,1451.88 1829.64,1451.88 1832.08,1451.88 1834.52,1451.88 1836.95,1451.88 1839.39,1451.88 1841.83,1451.88 1844.27,1451.88 1846.71,1451.88 1849.15,1451.88 "></polyline>
<polyline clip-path="url(#clip042)" style="stroke:#008000; stroke-linecap:round; stroke-linejoin:round; stroke-width:12; stroke-opacity:1; fill:none" points="1851.59,683.807 1854.03,683.807 1856.46,683.807 1858.9,683.807 1861.34,683.807 1863.78,683.807 1866.22,683.807 "></polyline>
<polyline clip-path="url(#clip042)" style="stroke:#ff0000; stroke-linecap:round; stroke-linejoin:round; stroke-width:12; stroke-opacity:1; fill:none" points="1868.66,299.768 1871.1,299.768 1873.54,299.768 1875.97,299.768 1878.41,299.768 1880.85,299.768 1883.29,299.768 1885.73,299.768 1888.17,299.768 1890.61,299.768 1893.05,299.768 "></polyline>
<polyline clip-path="url(#clip042)" style="stroke:#ff0000; stroke-linecap:round; stroke-linejoin:round; stroke-width:12; stroke-opacity:1; fill:none" points="1897.92,299.768 1900.36,299.768 1902.8,299.768 1905.24,299.768 1907.68,299.768 1910.12,299.768 "></polyline>
<polyline clip-path="url(#clip042)" style="stroke:#008000; stroke-linecap:round; stroke-linejoin:round; stroke-width:12; stroke-opacity:1; fill:none" points="1912.56,683.807 1915,683.807 1917.43,683.807 "></polyline>
<polyline clip-path="url(#clip042)" style="stroke:#ff0000; stroke-linecap:round; stroke-linejoin:round; stroke-width:12; stroke-opacity:1; fill:none" points="1919.87,299.768 1922.31,299.768 1924.75,299.768 1927.19,299.768 1929.63,299.768 1932.07,299.768 1934.51,299.768 1936.94,299.768 "></polyline>
<polyline clip-path="url(#clip042)" style="stroke:#ff0000; stroke-linecap:round; stroke-linejoin:round; stroke-width:12; stroke-opacity:1; fill:none" points="1941.82,299.768 1944.26,299.768 1946.7,299.768 1949.14,299.768 1951.58,299.768 1954.02,299.768 1956.45,299.768 1958.89,299.768 "></polyline>
<polyline clip-path="url(#clip042)" style="stroke:#008000; stroke-linecap:round; stroke-linejoin:round; stroke-width:12; stroke-opacity:1; fill:none" points="1961.33,683.807 1963.77,683.807 "></polyline>
<polyline clip-path="url(#clip042)" style="stroke:#ff0000; stroke-linecap:round; stroke-linejoin:round; stroke-width:12; stroke-opacity:1; fill:none" points="1966.21,299.768 1968.65,299.768 1971.09,299.768 1973.53,299.768 1975.96,299.768 1978.4,299.768 1980.84,299.768 1983.28,299.768 "></polyline>
<polyline clip-path="url(#clip042)" style="stroke:#ff0000; stroke-linecap:round; stroke-linejoin:round; stroke-width:12; stroke-opacity:1; fill:none" points="1988.16,299.768 1990.6,299.768 1993.04,299.768 1995.47,299.768 1997.91,299.768 2000.35,299.768 2002.79,299.768 2005.23,299.768 "></polyline>
<polyline clip-path="url(#clip042)" style="stroke:#008000; stroke-linecap:round; stroke-linejoin:round; stroke-width:12; stroke-opacity:1; fill:none" points="2007.67,683.807 2010.11,683.807 "></polyline>
<polyline clip-path="url(#clip042)" style="stroke:#ff0000; stroke-linecap:round; stroke-linejoin:round; stroke-width:12; stroke-opacity:1; fill:none" points="2012.55,299.768 2014.99,299.768 2017.42,299.768 2019.86,299.768 2022.3,299.768 2024.74,299.768 2027.18,299.768 2029.62,299.768 2032.06,299.768 "></polyline>
<polyline clip-path="url(#clip042)" style="stroke:#008000; stroke-linecap:round; stroke-linejoin:round; stroke-width:12; stroke-opacity:1; fill:none" points="2034.5,683.807 2036.93,683.807 "></polyline>
<polyline clip-path="url(#clip042)" style="stroke:#ff0000; stroke-linecap:round; stroke-linejoin:round; stroke-width:12; stroke-opacity:1; fill:none" points="2039.37,299.768 2041.81,299.768 2044.25,299.768 2046.69,299.768 2049.13,299.768 2051.57,299.768 2054.01,299.768 2056.44,299.768 2058.88,299.768 2061.32,299.768 2063.76,299.768 "></polyline>
<polyline clip-path="url(#clip042)" style="stroke:#ff0000; stroke-linecap:round; stroke-linejoin:round; stroke-width:12; stroke-opacity:1; fill:none" points="2068.64,299.768 2071.08,299.768 2073.52,299.768 2075.95,299.768 2078.39,299.768 2080.83,299.768 2083.27,299.768 2085.71,299.768 "></polyline>
<polyline clip-path="url(#clip042)" style="stroke:#008000; stroke-linecap:round; stroke-linejoin:round; stroke-width:12; stroke-opacity:1; fill:none" points="2088.15,683.807 2090.59,683.807 2093.03,683.807 "></polyline>
<polyline clip-path="url(#clip042)" style="stroke:#ff0000; stroke-linecap:round; stroke-linejoin:round; stroke-width:12; stroke-opacity:1; fill:none" points="2095.46,299.768 2097.9,299.768 2100.34,299.768 2102.78,299.768 2105.22,299.768 2107.66,299.768 "></polyline>
<polyline clip-path="url(#clip042)" style="stroke:#ff0000; stroke-linecap:round; stroke-linejoin:round; stroke-width:12; stroke-opacity:1; fill:none" points="2112.54,299.768 2114.98,299.768 2117.41,299.768 2119.85,299.768 2122.29,299.768 2124.73,299.768 2127.17,299.768 2129.61,299.768 2132.05,299.768 "></polyline>
<polyline clip-path="url(#clip042)" style="stroke:#ff0000; stroke-linecap:round; stroke-linejoin:round; stroke-width:12; stroke-opacity:1; fill:none" points="2136.92,299.768 2139.36,299.768 2141.8,299.768 2144.24,299.768 2146.68,299.768 2149.12,299.768 2151.56,299.768 2154,299.768 2156.43,299.768 "></polyline>
<polyline clip-path="url(#clip042)" style="stroke:#008000; stroke-linecap:round; stroke-linejoin:round; stroke-width:12; stroke-opacity:1; fill:none" points="2158.87,683.807 2161.31,683.807 "></polyline>
<polyline clip-path="url(#clip042)" style="stroke:#ff0000; stroke-linecap:round; stroke-linejoin:round; stroke-width:12; stroke-opacity:1; fill:none" points="2163.75,299.768 2166.19,299.768 2168.63,299.768 2171.07,299.768 2173.51,299.768 2175.94,299.768 2178.38,299.768 2180.82,299.768 "></polyline>
<polyline clip-path="url(#clip042)" style="stroke:#008000; stroke-linecap:round; stroke-linejoin:round; stroke-width:12; stroke-opacity:1; fill:none" points="2183.26,683.807 2185.7,683.807 2188.14,683.807 2190.58,683.807 "></polyline>
<polyline clip-path="url(#clip042)" style="stroke:#ff0000; stroke-linecap:round; stroke-linejoin:round; stroke-width:12; stroke-opacity:1; fill:none" points="2193.02,299.768 2195.45,299.768 2197.89,299.768 2200.33,299.768 2202.77,299.768 2205.21,299.768 2207.65,299.768 2210.09,299.768 2212.53,299.768 2214.96,299.768 "></polyline>
<polyline clip-path="url(#clip042)" style="stroke:#ff0000; stroke-linecap:round; stroke-linejoin:round; stroke-width:12; stroke-opacity:1; fill:none" points="2219.84,299.768 2222.28,299.768 2224.72,299.768 2227.16,299.768 2229.6,299.768 2232.04,299.768 2234.48,299.768 2236.91,299.768 2239.35,299.768 2241.79,299.768 2244.23,299.768 2246.67,299.768 2249.11,299.768 2251.55,299.768 2253.99,299.768 2256.42,299.768 2258.86,299.768 2261.3,299.768 2263.74,299.768 2266.18,299.768 2268.62,299.768 2271.06,299.768 2273.5,299.768 2275.93,299.768 2278.37,299.768 2280.81,299.768 2283.25,299.768 2285.69,299.768 2288.13,299.768 2290.57,299.768 2293.01,299.768 2295.44,299.768 2297.88,299.768 "></polyline>
</svg>